<svg width="380" height="348" viewBox="0 0 380 348" fill="none" xmlns="http://www.w3.org/2000/svg">
<g filter="url(#filter0_d_4600_319)">
<rect x="40" y="24" width="300" height="268" rx="10" fill="#F6F6F6"/>
<rect x="158" y="56" width="64" height="64" rx="12" fill="#F3F4F6"/>
<path d="M200.5 77H178.5C177.97 77 177.461 77.2107 177.086 77.5858C176.711 77.9609 176.5 78.4696 176.5 79V97C176.5 97.5304 176.711 98.0391 177.086 98.4142C177.461 98.7893 177.97 99 178.5 99H200.5C201.03 99 201.539 98.7893 201.914 98.4142C202.289 98.0391 202.5 97.5304 202.5 97V79C202.5 78.4696 202.289 77.9609 201.914 77.5858C201.539 77.2107 201.03 77 200.5 77ZM185.1 90.2C185.312 90.3591 185.452 90.596 185.49 90.8586C185.527 91.1211 185.459 91.3878 185.3 91.6C185.141 91.8122 184.904 91.9524 184.641 91.99C184.379 92.0275 184.112 91.9591 183.9 91.8L179.9 88.8C179.776 88.7069 179.675 88.5861 179.606 88.4472C179.536 88.3084 179.5 88.1552 179.5 88C179.5 87.8448 179.536 87.6916 179.606 87.5528C179.675 87.4139 179.776 87.2931 179.9 87.2L183.9 84.2C184.112 84.0409 184.379 83.9725 184.641 84.0101C184.904 84.0476 185.141 84.1878 185.3 84.4C185.459 84.6122 185.527 84.8789 185.49 85.1414C185.452 85.404 185.312 85.6409 185.1 85.8L182.166 88L185.1 90.2ZM192.461 81.275L188.461 95.275C188.427 95.4035 188.368 95.5239 188.287 95.6292C188.205 95.7345 188.104 95.8225 187.988 95.8882C187.873 95.9538 187.745 95.9958 187.613 96.0115C187.481 96.0273 187.347 96.0166 187.22 95.98C187.092 95.9434 186.973 95.8818 186.869 95.7986C186.765 95.7154 186.679 95.6123 186.616 95.4955C186.552 95.3786 186.513 95.2503 186.5 95.118C186.486 94.9857 186.5 94.8521 186.539 94.725L190.539 80.725C190.616 80.4747 190.788 80.2645 191.018 80.1396C191.248 80.0147 191.518 79.9851 191.77 80.0571C192.022 80.1292 192.235 80.2971 192.364 80.5248C192.494 80.7525 192.528 81.0219 192.461 81.275ZM199.1 88.8L195.1 91.8C194.888 91.9591 194.621 92.0275 194.359 91.99C194.096 91.9524 193.859 91.8122 193.7 91.6C193.541 91.3878 193.473 91.1211 193.51 90.8586C193.548 90.596 193.688 90.3591 193.9 90.2L196.834 88L193.9 85.8C193.795 85.7212 193.706 85.6225 193.64 85.5095C193.573 85.3965 193.529 85.2714 193.51 85.1414C193.491 85.0114 193.499 84.879 193.531 84.7518C193.564 84.6246 193.621 84.5051 193.7 84.4C193.779 84.2949 193.878 84.2064 193.991 84.1395C194.104 84.0726 194.229 84.0286 194.359 84.0101C194.489 83.9915 194.621 83.9987 194.748 84.0313C194.875 84.0639 194.995 84.1212 195.1 84.2L199.1 87.2C199.224 87.2931 199.325 87.4139 199.394 87.5528C199.464 87.6916 199.5 87.8448 199.5 88C199.5 88.1552 199.464 88.3084 199.394 88.4472C199.325 88.5861 199.224 88.7069 199.1 88.8Z" fill="#FB6B1A"/>
<path d="M117.149 162.192C116.253 162.192 115.394 162.075 114.573 161.84C113.751 161.595 113.09 161.28 112.589 160.896L113.469 158.944C113.949 159.285 114.514 159.568 115.165 159.792C115.826 160.005 116.493 160.112 117.165 160.112C117.677 160.112 118.087 160.064 118.397 159.968C118.717 159.861 118.951 159.717 119.101 159.536C119.25 159.355 119.325 159.147 119.325 158.912C119.325 158.613 119.207 158.379 118.973 158.208C118.738 158.027 118.429 157.883 118.045 157.776C117.661 157.659 117.234 157.552 116.765 157.456C116.306 157.349 115.842 157.221 115.373 157.072C114.914 156.923 114.493 156.731 114.109 156.496C113.725 156.261 113.41 155.952 113.165 155.568C112.93 155.184 112.813 154.693 112.813 154.096C112.813 153.456 112.983 152.875 113.325 152.352C113.677 151.819 114.199 151.397 114.893 151.088C115.597 150.768 116.477 150.608 117.533 150.608C118.237 150.608 118.93 150.693 119.613 150.864C120.295 151.024 120.898 151.269 121.421 151.6L120.621 153.568C120.098 153.269 119.575 153.051 119.053 152.912C118.53 152.763 118.018 152.688 117.517 152.688C117.015 152.688 116.605 152.747 116.285 152.864C115.965 152.981 115.735 153.136 115.597 153.328C115.458 153.509 115.389 153.723 115.389 153.968C115.389 154.256 115.506 154.491 115.741 154.672C115.975 154.843 116.285 154.981 116.669 155.088C117.053 155.195 117.474 155.301 117.933 155.408C118.402 155.515 118.866 155.637 119.325 155.776C119.794 155.915 120.221 156.101 120.605 156.336C120.989 156.571 121.298 156.88 121.533 157.264C121.778 157.648 121.901 158.133 121.901 158.72C121.901 159.349 121.725 159.925 121.373 160.448C121.021 160.971 120.493 161.392 119.789 161.712C119.095 162.032 118.215 162.192 117.149 162.192ZM127.592 162.128C126.674 162.128 125.858 161.936 125.144 161.552C124.44 161.168 123.88 160.645 123.464 159.984C123.058 159.312 122.856 158.549 122.856 157.696C122.856 156.832 123.058 156.069 123.464 155.408C123.88 154.736 124.44 154.213 125.144 153.84C125.858 153.456 126.674 153.264 127.592 153.264C128.498 153.264 129.309 153.456 130.024 153.84C130.738 154.213 131.298 154.731 131.704 155.392C132.109 156.053 132.312 156.821 132.312 157.696C132.312 158.549 132.109 159.312 131.704 159.984C131.298 160.645 130.738 161.168 130.024 161.552C129.309 161.936 128.498 162.128 127.592 162.128ZM127.592 160.08C128.008 160.08 128.381 159.984 128.712 159.792C129.042 159.6 129.304 159.328 129.496 158.976C129.688 158.613 129.784 158.187 129.784 157.696C129.784 157.195 129.688 156.768 129.496 156.416C129.304 156.064 129.042 155.792 128.712 155.6C128.381 155.408 128.008 155.312 127.592 155.312C127.176 155.312 126.802 155.408 126.472 155.6C126.141 155.792 125.874 156.064 125.672 156.416C125.48 156.768 125.384 157.195 125.384 157.696C125.384 158.187 125.48 158.613 125.672 158.976C125.874 159.328 126.141 159.6 126.472 159.792C126.802 159.984 127.176 160.08 127.592 160.08ZM134.284 162V153.2C134.284 152.229 134.572 151.456 135.148 150.88C135.724 150.293 136.545 150 137.612 150C137.975 150 138.321 150.037 138.652 150.112C138.993 150.187 139.281 150.304 139.516 150.464L138.86 152.272C138.721 152.176 138.567 152.101 138.396 152.048C138.225 151.995 138.044 151.968 137.852 151.968C137.489 151.968 137.207 152.075 137.004 152.288C136.812 152.491 136.716 152.8 136.716 153.216V154.016L136.78 155.088V162H134.284ZM132.956 155.504V153.584H138.924V155.504H132.956ZM143.688 162.128C142.674 162.128 141.885 161.872 141.32 161.36C140.754 160.837 140.472 160.064 140.472 159.04V151.488H142.968V159.008C142.968 159.371 143.064 159.653 143.256 159.856C143.448 160.048 143.709 160.144 144.04 160.144C144.434 160.144 144.77 160.037 145.048 159.824L145.72 161.584C145.464 161.765 145.154 161.904 144.792 162C144.44 162.085 144.072 162.128 143.688 162.128ZM139.144 155.504V153.584H145.112V155.504H139.144ZM148.933 162L145.829 153.392H148.181L150.757 160.8H149.637L152.325 153.392H154.437L157.045 160.8H155.925L158.581 153.392H160.789L157.669 162H155.253L152.965 155.648H153.701L151.333 162H148.933ZM166.948 162V160.32L166.788 159.952V156.944C166.788 156.411 166.622 155.995 166.292 155.696C165.972 155.397 165.476 155.248 164.804 155.248C164.345 155.248 163.892 155.323 163.444 155.472C163.006 155.611 162.633 155.803 162.324 156.048L161.428 154.304C161.897 153.973 162.462 153.717 163.124 153.536C163.785 153.355 164.457 153.264 165.14 153.264C166.452 153.264 167.47 153.573 168.196 154.192C168.921 154.811 169.284 155.776 169.284 157.088V162H166.948ZM164.324 162.128C163.652 162.128 163.076 162.016 162.596 161.792C162.116 161.557 161.748 161.243 161.492 160.848C161.236 160.453 161.108 160.011 161.108 159.52C161.108 159.008 161.23 158.56 161.476 158.176C161.732 157.792 162.132 157.493 162.676 157.28C163.22 157.056 163.929 156.944 164.804 156.944H167.092V158.4H165.076C164.489 158.4 164.084 158.496 163.86 158.688C163.646 158.88 163.54 159.12 163.54 159.408C163.54 159.728 163.662 159.984 163.908 160.176C164.164 160.357 164.51 160.448 164.948 160.448C165.364 160.448 165.737 160.352 166.068 160.16C166.398 159.957 166.638 159.664 166.788 159.28L167.172 160.432C166.99 160.987 166.66 161.408 166.18 161.696C165.7 161.984 165.081 162.128 164.324 162.128ZM171.543 162V153.392H173.927V155.824L173.591 155.12C173.847 154.512 174.257 154.053 174.823 153.744C175.388 153.424 176.076 153.264 176.887 153.264V155.568C176.78 155.557 176.684 155.552 176.599 155.552C176.513 155.541 176.423 155.536 176.327 155.536C175.644 155.536 175.089 155.733 174.663 156.128C174.247 156.512 174.039 157.115 174.039 157.936V162H171.543ZM182.58 162.128C181.599 162.128 180.735 161.936 179.988 161.552C179.252 161.168 178.682 160.645 178.276 159.984C177.871 159.312 177.668 158.549 177.668 157.696C177.668 156.832 177.866 156.069 178.26 155.408C178.666 154.736 179.215 154.213 179.908 153.84C180.602 153.456 181.386 153.264 182.26 153.264C183.103 153.264 183.86 153.445 184.532 153.808C185.215 154.16 185.754 154.672 186.148 155.344C186.543 156.005 186.74 156.8 186.74 157.728C186.74 157.824 186.735 157.936 186.724 158.064C186.714 158.181 186.703 158.293 186.692 158.4H179.7V156.944H185.38L184.42 157.376C184.42 156.928 184.33 156.539 184.148 156.208C183.967 155.877 183.716 155.621 183.396 155.44C183.076 155.248 182.703 155.152 182.276 155.152C181.85 155.152 181.471 155.248 181.14 155.44C180.82 155.621 180.57 155.883 180.388 156.224C180.207 156.555 180.116 156.949 180.116 157.408V157.792C180.116 158.261 180.218 158.677 180.42 159.04C180.634 159.392 180.927 159.664 181.3 159.856C181.684 160.037 182.132 160.128 182.644 160.128C183.103 160.128 183.503 160.059 183.844 159.92C184.196 159.781 184.516 159.573 184.804 159.296L186.132 160.736C185.738 161.184 185.242 161.531 184.644 161.776C184.047 162.011 183.359 162.128 182.58 162.128ZM195.493 155.312H200.885V157.328H195.493V155.312ZM195.685 159.92H201.781V162H193.109V150.8H201.573V152.88H195.685V159.92ZM208.9 153.264C209.582 153.264 210.19 153.403 210.724 153.68C211.268 153.947 211.694 154.363 212.004 154.928C212.313 155.483 212.468 156.197 212.468 157.072V162H209.972V157.456C209.972 156.763 209.817 156.251 209.508 155.92C209.209 155.589 208.782 155.424 208.228 155.424C207.833 155.424 207.476 155.509 207.156 155.68C206.846 155.84 206.601 156.091 206.42 156.432C206.249 156.773 206.164 157.211 206.164 157.744V162H203.668V153.392H206.052V155.776L205.604 155.056C205.913 154.48 206.356 154.037 206.932 153.728C207.508 153.419 208.164 153.264 208.9 153.264ZM218.841 165.232C218.03 165.232 217.246 165.131 216.489 164.928C215.742 164.736 215.118 164.443 214.617 164.048L215.609 162.256C215.971 162.555 216.43 162.789 216.985 162.96C217.55 163.141 218.105 163.232 218.649 163.232C219.534 163.232 220.174 163.035 220.569 162.64C220.974 162.245 221.177 161.659 221.177 160.88V159.584L221.337 157.424L221.305 155.248V153.392H223.673V160.56C223.673 162.16 223.257 163.339 222.425 164.096C221.593 164.853 220.398 165.232 218.841 165.232ZM218.457 161.584C217.657 161.584 216.931 161.413 216.281 161.072C215.641 160.72 215.123 160.235 214.729 159.616C214.345 158.987 214.153 158.256 214.153 157.424C214.153 156.581 214.345 155.851 214.729 155.232C215.123 154.603 215.641 154.117 216.281 153.776C216.931 153.435 217.657 153.264 218.457 153.264C219.182 153.264 219.822 153.413 220.377 153.712C220.931 154 221.363 154.453 221.673 155.072C221.982 155.68 222.137 156.464 222.137 157.424C222.137 158.373 221.982 159.157 221.673 159.776C221.363 160.384 220.931 160.837 220.377 161.136C219.822 161.435 219.182 161.584 218.457 161.584ZM218.953 159.536C219.39 159.536 219.779 159.451 220.121 159.28C220.462 159.099 220.729 158.848 220.921 158.528C221.113 158.208 221.209 157.84 221.209 157.424C221.209 156.997 221.113 156.629 220.921 156.32C220.729 156 220.462 155.755 220.121 155.584C219.779 155.403 219.39 155.312 218.953 155.312C218.515 155.312 218.126 155.403 217.785 155.584C217.443 155.755 217.171 156 216.969 156.32C216.777 156.629 216.681 156.997 216.681 157.424C216.681 157.84 216.777 158.208 216.969 158.528C217.171 158.848 217.443 159.099 217.785 159.28C218.126 159.451 218.515 159.536 218.953 159.536ZM225.996 162V153.392H228.492V162H225.996ZM227.244 152.192C226.785 152.192 226.412 152.059 226.124 151.792C225.836 151.525 225.692 151.195 225.692 150.8C225.692 150.405 225.836 150.075 226.124 149.808C226.412 149.541 226.785 149.408 227.244 149.408C227.702 149.408 228.076 149.536 228.364 149.792C228.652 150.037 228.796 150.357 228.796 150.752C228.796 151.168 228.652 151.515 228.364 151.792C228.086 152.059 227.713 152.192 227.244 152.192ZM236.04 153.264C236.723 153.264 237.331 153.403 237.864 153.68C238.408 153.947 238.835 154.363 239.144 154.928C239.454 155.483 239.608 156.197 239.608 157.072V162H237.112V157.456C237.112 156.763 236.958 156.251 236.648 155.92C236.35 155.589 235.923 155.424 235.368 155.424C234.974 155.424 234.616 155.509 234.296 155.68C233.987 155.84 233.742 156.091 233.56 156.432C233.39 156.773 233.304 157.211 233.304 157.744V162H230.808V153.392H233.192V155.776L232.744 155.056C233.054 154.48 233.496 154.037 234.072 153.728C234.648 153.419 235.304 153.264 236.04 153.264ZM246.205 162.128C245.224 162.128 244.36 161.936 243.613 161.552C242.877 161.168 242.307 160.645 241.901 159.984C241.496 159.312 241.293 158.549 241.293 157.696C241.293 156.832 241.491 156.069 241.885 155.408C242.291 154.736 242.84 154.213 243.533 153.84C244.227 153.456 245.011 153.264 245.885 153.264C246.728 153.264 247.485 153.445 248.157 153.808C248.84 154.16 249.379 154.672 249.773 155.344C250.168 156.005 250.365 156.8 250.365 157.728C250.365 157.824 250.36 157.936 250.349 158.064C250.339 158.181 250.328 158.293 250.317 158.4H243.325V156.944H249.005L248.045 157.376C248.045 156.928 247.955 156.539 247.773 156.208C247.592 155.877 247.341 155.621 247.021 155.44C246.701 155.248 246.328 155.152 245.901 155.152C245.475 155.152 245.096 155.248 244.765 155.44C244.445 155.621 244.195 155.883 244.013 156.224C243.832 156.555 243.741 156.949 243.741 157.408V157.792C243.741 158.261 243.843 158.677 244.045 159.04C244.259 159.392 244.552 159.664 244.925 159.856C245.309 160.037 245.757 160.128 246.269 160.128C246.728 160.128 247.128 160.059 247.469 159.92C247.821 159.781 248.141 159.573 248.429 159.296L249.757 160.736C249.363 161.184 248.867 161.531 248.269 161.776C247.672 162.011 246.984 162.128 246.205 162.128ZM256.299 162.128C255.318 162.128 254.454 161.936 253.707 161.552C252.971 161.168 252.4 160.645 251.995 159.984C251.59 159.312 251.387 158.549 251.387 157.696C251.387 156.832 251.584 156.069 251.979 155.408C252.384 154.736 252.934 154.213 253.627 153.84C254.32 153.456 255.104 153.264 255.979 153.264C256.822 153.264 257.579 153.445 258.251 153.808C258.934 154.16 259.472 154.672 259.867 155.344C260.262 156.005 260.459 156.8 260.459 157.728C260.459 157.824 260.454 157.936 260.443 158.064C260.432 158.181 260.422 158.293 260.411 158.4H253.419V156.944H259.099L258.139 157.376C258.139 156.928 258.048 156.539 257.867 156.208C257.686 155.877 257.435 155.621 257.115 155.44C256.795 155.248 256.422 155.152 255.995 155.152C255.568 155.152 255.19 155.248 254.859 155.44C254.539 155.621 254.288 155.883 254.107 156.224C253.926 156.555 253.835 156.949 253.835 157.408V157.792C253.835 158.261 253.936 158.677 254.139 159.04C254.352 159.392 254.646 159.664 255.019 159.856C255.403 160.037 255.851 160.128 256.363 160.128C256.822 160.128 257.222 160.059 257.563 159.92C257.915 159.781 258.235 159.573 258.523 159.296L259.851 160.736C259.456 161.184 258.96 161.531 258.363 161.776C257.766 162.011 257.078 162.128 256.299 162.128ZM262.121 162V153.392H264.505V155.824L264.169 155.12C264.425 154.512 264.835 154.053 265.401 153.744C265.966 153.424 266.654 153.264 267.465 153.264V155.568C267.358 155.557 267.262 155.552 267.177 155.552C267.091 155.541 267.001 155.536 266.905 155.536C266.222 155.536 265.667 155.733 265.241 156.128C264.825 156.512 264.617 157.115 264.617 157.936V162H262.121Z" fill="#333333"/>
<g opacity="0.7">
<path d="M75.5909 186.224H81.5109V187.248H75.5909V186.224ZM75.7189 192H74.5349V180.8H82.2149V181.824H75.7189V192ZM84.4199 192V183.6H85.5559V192H84.4199ZM84.9959 181.744C84.7613 181.744 84.5639 181.664 84.4039 181.504C84.2439 181.344 84.1639 181.152 84.1639 180.928C84.1639 180.704 84.2439 180.517 84.4039 180.368C84.5639 180.208 84.7613 180.128 84.9959 180.128C85.2306 180.128 85.4279 180.203 85.5879 180.352C85.7479 180.501 85.8279 180.688 85.8279 180.912C85.8279 181.147 85.7479 181.344 85.5879 181.504C85.4386 181.664 85.2413 181.744 84.9959 181.744ZM93.0048 183.52C93.6875 183.52 94.2848 183.653 94.7968 183.92C95.3195 184.176 95.7248 184.571 96.0128 185.104C96.3115 185.637 96.4608 186.309 96.4608 187.12V192H95.3248V187.232C95.3248 186.347 95.1008 185.68 94.6528 185.232C94.2155 184.773 93.5968 184.544 92.7968 184.544C92.1995 184.544 91.6768 184.667 91.2288 184.912C90.7915 185.147 90.4501 185.493 90.2048 185.952C89.9701 186.4 89.8528 186.944 89.8528 187.584V192H88.7168V183.6H89.8048V185.904L89.6288 185.472C89.8955 184.864 90.3221 184.389 90.9088 184.048C91.4955 183.696 92.1941 183.52 93.0048 183.52ZM102.873 192.08C102.073 192.08 101.353 191.899 100.713 191.536C100.084 191.173 99.588 190.672 99.2253 190.032C98.8626 189.381 98.6813 188.635 98.6813 187.792C98.6813 186.939 98.8626 186.192 99.2253 185.552C99.588 184.912 100.084 184.416 100.713 184.064C101.353 183.701 102.073 183.52 102.873 183.52C103.609 183.52 104.265 183.685 104.841 184.016C105.428 184.347 105.892 184.832 106.233 185.472C106.585 186.101 106.761 186.875 106.761 187.792C106.761 188.699 106.591 189.472 106.249 190.112C105.908 190.752 105.444 191.243 104.857 191.584C104.281 191.915 103.62 192.08 102.873 192.08ZM102.953 191.072C103.551 191.072 104.084 190.939 104.553 190.672C105.033 190.395 105.407 190.011 105.673 189.52C105.951 189.019 106.089 188.443 106.089 187.792C106.089 187.131 105.951 186.555 105.673 186.064C105.407 185.573 105.033 185.195 104.553 184.928C104.084 184.651 103.551 184.512 102.953 184.512C102.367 184.512 101.839 184.651 101.369 184.928C100.9 185.195 100.527 185.573 100.249 186.064C99.972 186.555 99.8333 187.131 99.8333 187.792C99.8333 188.443 99.972 189.019 100.249 189.52C100.527 190.011 100.9 190.395 101.369 190.672C101.839 190.939 102.367 191.072 102.953 191.072ZM106.121 192V189.472L106.233 187.776L106.073 186.08V180.128H107.209V192H106.121ZM110.373 192V183.6H111.509V192H110.373ZM110.949 181.744C110.714 181.744 110.517 181.664 110.357 181.504C110.197 181.344 110.117 181.152 110.117 180.928C110.117 180.704 110.197 180.517 110.357 180.368C110.517 180.208 110.714 180.128 110.949 180.128C111.184 180.128 111.381 180.203 111.541 180.352C111.701 180.501 111.781 180.688 111.781 180.912C111.781 181.147 111.701 181.344 111.541 181.504C111.392 181.664 111.194 181.744 110.949 181.744ZM118.958 183.52C119.641 183.52 120.238 183.653 120.75 183.92C121.273 184.176 121.678 184.571 121.966 185.104C122.265 185.637 122.414 186.309 122.414 187.12V192H121.278V187.232C121.278 186.347 121.054 185.68 120.606 185.232C120.169 184.773 119.55 184.544 118.75 184.544C118.153 184.544 117.63 184.667 117.182 184.912C116.745 185.147 116.403 185.493 116.158 185.952C115.923 186.4 115.806 186.944 115.806 187.584V192H114.67V183.6H115.758V185.904L115.582 185.472C115.849 184.864 116.275 184.389 116.862 184.048C117.449 183.696 118.147 183.52 118.958 183.52ZM129.066 195.184C128.298 195.184 127.562 195.072 126.858 194.848C126.154 194.624 125.584 194.304 125.146 193.888L125.722 193.024C126.117 193.376 126.602 193.653 127.178 193.856C127.765 194.069 128.384 194.176 129.034 194.176C130.101 194.176 130.885 193.925 131.386 193.424C131.888 192.933 132.138 192.165 132.138 191.12V189.024L132.298 187.584L132.186 186.144V183.6H133.274V190.976C133.274 192.427 132.917 193.488 132.202 194.16C131.498 194.843 130.453 195.184 129.066 195.184ZM128.858 191.68C128.058 191.68 127.338 191.509 126.698 191.168C126.058 190.816 125.552 190.331 125.178 189.712C124.816 189.093 124.634 188.384 124.634 187.584C124.634 186.784 124.816 186.08 125.178 185.472C125.552 184.853 126.058 184.373 126.698 184.032C127.338 183.691 128.058 183.52 128.858 183.52C129.605 183.52 130.277 183.675 130.874 183.984C131.472 184.293 131.946 184.752 132.298 185.36C132.65 185.968 132.826 186.709 132.826 187.584C132.826 188.459 132.65 189.2 132.298 189.808C131.946 190.416 131.472 190.88 130.874 191.2C130.277 191.52 129.605 191.68 128.858 191.68ZM128.97 190.672C129.589 190.672 130.138 190.544 130.618 190.288C131.098 190.021 131.477 189.659 131.754 189.2C132.032 188.731 132.17 188.192 132.17 187.584C132.17 186.976 132.032 186.443 131.754 185.984C131.477 185.525 131.098 185.168 130.618 184.912C130.138 184.645 129.589 184.512 128.97 184.512C128.362 184.512 127.813 184.645 127.322 184.912C126.842 185.168 126.464 185.525 126.186 185.984C125.92 186.443 125.786 186.976 125.786 187.584C125.786 188.192 125.92 188.731 126.186 189.2C126.464 189.659 126.842 190.021 127.322 190.288C127.813 190.544 128.362 190.672 128.97 190.672ZM145.887 192V190.144L145.839 189.84V186.736C145.839 186.021 145.636 185.472 145.231 185.088C144.836 184.704 144.244 184.512 143.455 184.512C142.911 184.512 142.394 184.603 141.903 184.784C141.412 184.965 140.996 185.205 140.655 185.504L140.143 184.656C140.57 184.293 141.082 184.016 141.679 183.824C142.276 183.621 142.906 183.52 143.567 183.52C144.655 183.52 145.492 183.792 146.079 184.336C146.676 184.869 146.975 185.685 146.975 186.784V192H145.887ZM142.991 192.08C142.362 192.08 141.812 191.979 141.343 191.776C140.884 191.563 140.532 191.275 140.287 190.912C140.042 190.539 139.919 190.112 139.919 189.632C139.919 189.195 140.02 188.8 140.223 188.448C140.436 188.085 140.778 187.797 141.247 187.584C141.727 187.36 142.367 187.248 143.167 187.248H146.063V188.096H143.199C142.388 188.096 141.823 188.24 141.503 188.528C141.194 188.816 141.039 189.173 141.039 189.6C141.039 190.08 141.226 190.464 141.599 190.752C141.972 191.04 142.495 191.184 143.167 191.184C143.807 191.184 144.356 191.04 144.815 190.752C145.284 190.453 145.626 190.027 145.839 189.472L146.095 190.256C145.882 190.811 145.508 191.253 144.975 191.584C144.452 191.915 143.791 192.08 142.991 192.08ZM154.248 192V180.128H155.384V192H154.248ZM161.969 192.08C161.158 192.08 160.428 191.899 159.777 191.536C159.137 191.163 158.63 190.656 158.257 190.016C157.884 189.365 157.697 188.624 157.697 187.792C157.697 186.949 157.884 186.208 158.257 185.568C158.63 184.928 159.137 184.427 159.777 184.064C160.417 183.701 161.148 183.52 161.969 183.52C162.801 183.52 163.537 183.701 164.177 184.064C164.828 184.427 165.334 184.928 165.697 185.568C166.07 186.208 166.257 186.949 166.257 187.792C166.257 188.624 166.07 189.365 165.697 190.016C165.334 190.656 164.828 191.163 164.177 191.536C163.526 191.899 162.79 192.08 161.969 192.08ZM161.969 191.072C162.577 191.072 163.116 190.939 163.585 190.672C164.054 190.395 164.422 190.011 164.689 189.52C164.966 189.019 165.105 188.443 165.105 187.792C165.105 187.131 164.966 186.555 164.689 186.064C164.422 185.573 164.054 185.195 163.585 184.928C163.116 184.651 162.582 184.512 161.985 184.512C161.388 184.512 160.854 184.651 160.385 184.928C159.916 185.195 159.542 185.573 159.265 186.064C158.988 186.555 158.849 187.131 158.849 187.792C158.849 188.443 158.988 189.019 159.265 189.52C159.542 190.011 159.916 190.395 160.385 190.672C160.854 190.939 161.382 191.072 161.969 191.072ZM168.406 195.184C168.011 195.184 167.632 195.12 167.27 194.992C166.918 194.864 166.614 194.672 166.358 194.416L166.886 193.568C167.099 193.771 167.328 193.925 167.574 194.032C167.83 194.149 168.112 194.208 168.422 194.208C168.795 194.208 169.115 194.101 169.382 193.888C169.659 193.685 169.92 193.323 170.166 192.8L170.71 191.568L170.838 191.392L174.294 183.6H175.414L171.206 193.008C170.971 193.552 170.71 193.984 170.422 194.304C170.144 194.624 169.84 194.848 169.51 194.976C169.179 195.115 168.811 195.184 168.406 195.184ZM170.646 192.24L166.774 183.6H167.958L171.382 191.312L170.646 192.24ZM182.028 192V190.144L181.98 189.84V186.736C181.98 186.021 181.777 185.472 181.372 185.088C180.977 184.704 180.385 184.512 179.596 184.512C179.052 184.512 178.534 184.603 178.044 184.784C177.553 184.965 177.137 185.205 176.796 185.504L176.284 184.656C176.71 184.293 177.222 184.016 177.82 183.824C178.417 183.621 179.046 183.52 179.708 183.52C180.796 183.52 181.633 183.792 182.22 184.336C182.817 184.869 183.116 185.685 183.116 186.784V192H182.028ZM179.132 192.08C178.502 192.08 177.953 191.979 177.484 191.776C177.025 191.563 176.673 191.275 176.428 190.912C176.182 190.539 176.06 190.112 176.06 189.632C176.06 189.195 176.161 188.8 176.364 188.448C176.577 188.085 176.918 187.797 177.388 187.584C177.868 187.36 178.508 187.248 179.308 187.248H182.204V188.096H179.34C178.529 188.096 177.964 188.24 177.644 188.528C177.334 188.816 177.18 189.173 177.18 189.6C177.18 190.08 177.366 190.464 177.74 190.752C178.113 191.04 178.636 191.184 179.308 191.184C179.948 191.184 180.497 191.04 180.956 190.752C181.425 190.453 181.766 190.027 181.98 189.472L182.236 190.256C182.022 190.811 181.649 191.253 181.116 191.584C180.593 191.915 179.932 192.08 179.132 192.08ZM186.201 192V180.128H187.337V192H186.201ZM193.201 192.08C192.412 192.08 191.804 191.867 191.377 191.44C190.95 191.013 190.737 190.411 190.737 189.632V181.744H191.873V189.568C191.873 190.059 191.996 190.437 192.241 190.704C192.497 190.971 192.86 191.104 193.329 191.104C193.83 191.104 194.246 190.96 194.577 190.672L194.977 191.488C194.753 191.691 194.481 191.84 194.161 191.936C193.852 192.032 193.532 192.08 193.201 192.08ZM189.233 184.544V183.6H194.433V184.544H189.233ZM196.953 195.184C196.558 195.184 196.179 195.12 195.817 194.992C195.465 194.864 195.161 194.672 194.905 194.416L195.433 193.568C195.646 193.771 195.875 193.925 196.121 194.032C196.377 194.149 196.659 194.208 196.969 194.208C197.342 194.208 197.662 194.101 197.929 193.888C198.206 193.685 198.467 193.323 198.713 192.8L199.257 191.568L199.385 191.392L202.841 183.6H203.961L199.753 193.008C199.518 193.552 199.257 193.984 198.969 194.304C198.691 194.624 198.387 194.848 198.057 194.976C197.726 195.115 197.358 195.184 196.953 195.184ZM199.193 192.24L195.321 183.6H196.505L199.929 191.312L199.193 192.24ZM215.012 192V190.144L214.964 189.84V186.736C214.964 186.021 214.761 185.472 214.356 185.088C213.961 184.704 213.369 184.512 212.58 184.512C212.036 184.512 211.519 184.603 211.028 184.784C210.537 184.965 210.121 185.205 209.78 185.504L209.268 184.656C209.695 184.293 210.207 184.016 210.804 183.824C211.401 183.621 212.031 183.52 212.692 183.52C213.78 183.52 214.617 183.792 215.204 184.336C215.801 184.869 216.1 185.685 216.1 186.784V192H215.012ZM212.116 192.08C211.487 192.08 210.937 191.979 210.468 191.776C210.009 191.563 209.657 191.275 209.412 190.912C209.167 190.539 209.044 190.112 209.044 189.632C209.044 189.195 209.145 188.8 209.348 188.448C209.561 188.085 209.903 187.797 210.372 187.584C210.852 187.36 211.492 187.248 212.292 187.248H215.188V188.096H212.324C211.513 188.096 210.948 188.24 210.628 188.528C210.319 188.816 210.164 189.173 210.164 189.6C210.164 190.08 210.351 190.464 210.724 190.752C211.097 191.04 211.62 191.184 212.292 191.184C212.932 191.184 213.481 191.04 213.94 190.752C214.409 190.453 214.751 190.027 214.964 189.472L215.22 190.256C215.007 190.811 214.633 191.253 214.1 191.584C213.577 191.915 212.916 192.08 212.116 192.08ZM223.474 183.52C224.156 183.52 224.754 183.653 225.266 183.92C225.788 184.176 226.194 184.571 226.482 185.104C226.78 185.637 226.93 186.309 226.93 187.12V192H225.794V187.232C225.794 186.347 225.57 185.68 225.122 185.232C224.684 184.773 224.066 184.544 223.266 184.544C222.668 184.544 222.146 184.667 221.698 184.912C221.26 185.147 220.919 185.493 220.674 185.952C220.439 186.4 220.322 186.944 220.322 187.584V192H219.186V183.6H220.274V185.904L220.098 185.472C220.364 184.864 220.791 184.389 221.378 184.048C221.964 183.696 222.663 183.52 223.474 183.52ZM233.342 192.08C232.542 192.08 231.822 191.899 231.182 191.536C230.553 191.173 230.057 190.672 229.694 190.032C229.331 189.381 229.15 188.635 229.15 187.792C229.15 186.939 229.331 186.192 229.694 185.552C230.057 184.912 230.553 184.416 231.182 184.064C231.822 183.701 232.542 183.52 233.342 183.52C234.078 183.52 234.734 183.685 235.31 184.016C235.897 184.347 236.361 184.832 236.702 185.472C237.054 186.101 237.23 186.875 237.23 187.792C237.23 188.699 237.059 189.472 236.718 190.112C236.377 190.752 235.913 191.243 235.326 191.584C234.75 191.915 234.089 192.08 233.342 192.08ZM233.422 191.072C234.019 191.072 234.553 190.939 235.022 190.672C235.502 190.395 235.875 190.011 236.142 189.52C236.419 189.019 236.558 188.443 236.558 187.792C236.558 187.131 236.419 186.555 236.142 186.064C235.875 185.573 235.502 185.195 235.022 184.928C234.553 184.651 234.019 184.512 233.422 184.512C232.835 184.512 232.307 184.651 231.838 184.928C231.369 185.195 230.995 185.573 230.718 186.064C230.441 186.555 230.302 187.131 230.302 187.792C230.302 188.443 230.441 189.019 230.718 189.52C230.995 190.011 231.369 190.395 231.838 190.672C232.307 190.939 232.835 191.072 233.422 191.072ZM236.59 192V189.472L236.702 187.776L236.542 186.08V180.128H237.678V192H236.59ZM245.029 192V183.6H246.117V185.888L246.005 185.488C246.24 184.848 246.635 184.363 247.189 184.032C247.744 183.691 248.432 183.52 249.253 183.52V184.624C249.211 184.624 249.168 184.624 249.125 184.624C249.083 184.613 249.04 184.608 248.997 184.608C248.112 184.608 247.419 184.88 246.917 185.424C246.416 185.957 246.165 186.72 246.165 187.712V192H245.029ZM254.816 192.08C253.941 192.08 253.173 191.899 252.512 191.536C251.851 191.163 251.333 190.656 250.96 190.016C250.587 189.365 250.4 188.624 250.4 187.792C250.4 186.96 250.576 186.224 250.928 185.584C251.291 184.944 251.781 184.443 252.4 184.08C253.029 183.707 253.733 183.52 254.512 183.52C255.301 183.52 256 183.701 256.608 184.064C257.227 184.416 257.712 184.917 258.064 185.568C258.416 186.208 258.592 186.949 258.592 187.792C258.592 187.845 258.587 187.904 258.576 187.968C258.576 188.021 258.576 188.08 258.576 188.144H251.264V187.296H257.968L257.52 187.632C257.52 187.024 257.387 186.485 257.12 186.016C256.864 185.536 256.512 185.163 256.064 184.896C255.616 184.629 255.099 184.496 254.512 184.496C253.936 184.496 253.419 184.629 252.96 184.896C252.501 185.163 252.144 185.536 251.888 186.016C251.632 186.496 251.504 187.045 251.504 187.664V187.84C251.504 188.48 251.643 189.045 251.92 189.536C252.208 190.016 252.603 190.395 253.104 190.672C253.616 190.939 254.197 191.072 254.848 191.072C255.36 191.072 255.835 190.981 256.272 190.8C256.72 190.619 257.104 190.341 257.424 189.968L258.064 190.704C257.691 191.152 257.221 191.493 256.656 191.728C256.101 191.963 255.488 192.08 254.816 192.08ZM262.46 192L259.292 183.6H260.38L263.26 191.392H262.764L265.724 183.6H266.7L269.628 191.392H269.132L272.06 183.6H273.1L269.916 192H268.844L266.028 184.672H266.364L263.532 192H262.46ZM279.825 192V190.144L279.777 189.84V186.736C279.777 186.021 279.574 185.472 279.169 185.088C278.774 184.704 278.182 184.512 277.393 184.512C276.849 184.512 276.331 184.603 275.841 184.784C275.35 184.965 274.934 185.205 274.593 185.504L274.081 184.656C274.507 184.293 275.019 184.016 275.617 183.824C276.214 183.621 276.843 183.52 277.505 183.52C278.593 183.52 279.43 183.792 280.017 184.336C280.614 184.869 280.913 185.685 280.913 186.784V192H279.825ZM276.929 192.08C276.299 192.08 275.75 191.979 275.281 191.776C274.822 191.563 274.47 191.275 274.225 190.912C273.979 190.539 273.857 190.112 273.857 189.632C273.857 189.195 273.958 188.8 274.161 188.448C274.374 188.085 274.715 187.797 275.185 187.584C275.665 187.36 276.305 187.248 277.105 187.248H280.001V188.096H277.137C276.326 188.096 275.761 188.24 275.441 188.528C275.131 188.816 274.977 189.173 274.977 189.6C274.977 190.08 275.163 190.464 275.537 190.752C275.91 191.04 276.433 191.184 277.105 191.184C277.745 191.184 278.294 191.04 278.753 190.752C279.222 190.453 279.563 190.027 279.777 189.472L280.033 190.256C279.819 190.811 279.446 191.253 278.913 191.584C278.39 191.915 277.729 192.08 276.929 192.08ZM283.998 192V183.6H285.086V185.888L284.974 185.488C285.209 184.848 285.603 184.363 286.158 184.032C286.713 183.691 287.401 183.52 288.222 183.52V184.624C288.179 184.624 288.137 184.624 288.094 184.624C288.051 184.613 288.009 184.608 287.966 184.608C287.081 184.608 286.387 184.88 285.886 185.424C285.385 185.957 285.134 186.72 285.134 187.712V192H283.998ZM293.561 192.08C292.761 192.08 292.041 191.899 291.401 191.536C290.771 191.173 290.275 190.672 289.913 190.032C289.55 189.381 289.369 188.635 289.369 187.792C289.369 186.939 289.55 186.192 289.913 185.552C290.275 184.912 290.771 184.416 291.401 184.064C292.041 183.701 292.761 183.52 293.561 183.52C294.297 183.52 294.953 183.685 295.529 184.016C296.115 184.347 296.579 184.832 296.921 185.472C297.273 186.101 297.449 186.875 297.449 187.792C297.449 188.699 297.278 189.472 296.937 190.112C296.595 190.752 296.131 191.243 295.545 191.584C294.969 191.915 294.307 192.08 293.561 192.08ZM293.641 191.072C294.238 191.072 294.771 190.939 295.241 190.672C295.721 190.395 296.094 190.011 296.361 189.52C296.638 189.019 296.777 188.443 296.777 187.792C296.777 187.131 296.638 186.555 296.361 186.064C296.094 185.573 295.721 185.195 295.241 184.928C294.771 184.651 294.238 184.512 293.641 184.512C293.054 184.512 292.526 184.651 292.057 184.928C291.587 185.195 291.214 185.573 290.937 186.064C290.659 186.555 290.521 187.131 290.521 187.792C290.521 188.443 290.659 189.019 290.937 189.52C291.214 190.011 291.587 190.395 292.057 190.672C292.526 190.939 293.054 191.072 293.641 191.072ZM296.809 192V189.472L296.921 187.776L296.761 186.08V180.128H297.897V192H296.809ZM303.317 192.08C302.623 192.08 301.967 191.984 301.349 191.792C300.73 191.589 300.245 191.339 299.893 191.04L300.405 190.144C300.746 190.4 301.183 190.624 301.717 190.816C302.25 190.997 302.81 191.088 303.397 191.088C304.197 191.088 304.773 190.965 305.125 190.72C305.477 190.464 305.653 190.128 305.653 189.712C305.653 189.403 305.551 189.163 305.349 188.992C305.157 188.811 304.901 188.677 304.581 188.592C304.261 188.496 303.903 188.416 303.509 188.352C303.114 188.288 302.719 188.213 302.325 188.128C301.941 188.043 301.589 187.92 301.269 187.76C300.949 187.589 300.687 187.36 300.485 187.072C300.293 186.784 300.197 186.4 300.197 185.92C300.197 185.461 300.325 185.051 300.581 184.688C300.837 184.325 301.21 184.043 301.701 183.84C302.202 183.627 302.81 183.52 303.525 183.52C304.069 183.52 304.613 183.595 305.157 183.744C305.701 183.883 306.149 184.069 306.501 184.304L306.005 185.216C305.631 184.96 305.231 184.779 304.805 184.672C304.378 184.555 303.951 184.496 303.525 184.496C302.767 184.496 302.207 184.629 301.845 184.896C301.493 185.152 301.317 185.483 301.317 185.888C301.317 186.208 301.413 186.459 301.605 186.64C301.807 186.821 302.069 186.965 302.389 187.072C302.719 187.168 303.077 187.248 303.461 187.312C303.855 187.376 304.245 187.456 304.629 187.552C305.023 187.637 305.381 187.76 305.701 187.92C306.031 188.069 306.293 188.288 306.485 188.576C306.687 188.853 306.789 189.221 306.789 189.68C306.789 190.171 306.65 190.597 306.373 190.96C306.106 191.312 305.711 191.589 305.189 191.792C304.677 191.984 304.053 192.08 303.317 192.08ZM99.7716 213.08C99.0462 213.08 98.3902 212.915 97.8036 212.584C97.2169 212.243 96.7476 211.757 96.3956 211.128C96.0542 210.488 95.8836 209.709 95.8836 208.792C95.8836 207.875 96.0542 207.101 96.3956 206.472C96.7369 205.832 97.2009 205.347 97.7876 205.016C98.3742 204.685 99.0356 204.52 99.7716 204.52C100.572 204.52 101.286 204.701 101.916 205.064C102.556 205.416 103.057 205.917 103.42 206.568C103.782 207.208 103.964 207.949 103.964 208.792C103.964 209.645 103.782 210.392 103.42 211.032C103.057 211.672 102.556 212.173 101.916 212.536C101.286 212.899 100.572 213.08 99.7716 213.08ZM95.4356 216.104V204.6H96.5236V207.128L96.4116 208.808L96.5716 210.504V216.104H95.4356ZM99.6916 212.072C100.289 212.072 100.822 211.939 101.292 211.672C101.761 211.395 102.134 211.011 102.412 210.52C102.689 210.019 102.828 209.443 102.828 208.792C102.828 208.141 102.689 207.571 102.412 207.08C102.134 206.589 101.761 206.205 101.292 205.928C100.822 205.651 100.289 205.512 99.6916 205.512C99.0942 205.512 98.5556 205.651 98.0756 205.928C97.6062 206.205 97.2329 206.589 96.9556 207.08C96.6889 207.571 96.5556 208.141 96.5556 208.792C96.5556 209.443 96.6889 210.019 96.9556 210.52C97.2329 211.011 97.6062 211.395 98.0756 211.672C98.5556 211.939 99.0942 212.072 99.6916 212.072ZM106.279 213V201.128H107.415V213H106.279ZM115.84 213V211.144L115.792 210.84V207.736C115.792 207.021 115.59 206.472 115.184 206.088C114.79 205.704 114.198 205.512 113.408 205.512C112.864 205.512 112.347 205.603 111.856 205.784C111.366 205.965 110.95 206.205 110.608 206.504L110.096 205.656C110.523 205.293 111.035 205.016 111.632 204.824C112.23 204.621 112.859 204.52 113.52 204.52C114.608 204.52 115.446 204.792 116.032 205.336C116.63 205.869 116.928 206.685 116.928 207.784V213H115.84ZM112.944 213.08C112.315 213.08 111.766 212.979 111.296 212.776C110.838 212.563 110.486 212.275 110.24 211.912C109.995 211.539 109.872 211.112 109.872 210.632C109.872 210.195 109.974 209.8 110.176 209.448C110.39 209.085 110.731 208.797 111.2 208.584C111.68 208.36 112.32 208.248 113.12 208.248H116.016V209.096H113.152C112.342 209.096 111.776 209.24 111.456 209.528C111.147 209.816 110.992 210.173 110.992 210.6C110.992 211.08 111.179 211.464 111.552 211.752C111.926 212.04 112.448 212.184 113.12 212.184C113.76 212.184 114.31 212.04 114.768 211.752C115.238 211.453 115.579 211.027 115.792 210.472L116.048 211.256C115.835 211.811 115.462 212.253 114.928 212.584C114.406 212.915 113.744 213.08 112.944 213.08ZM122.67 213.08C121.88 213.08 121.272 212.867 120.846 212.44C120.419 212.013 120.206 211.411 120.206 210.632V202.744H121.342V210.568C121.342 211.059 121.464 211.437 121.71 211.704C121.966 211.971 122.328 212.104 122.798 212.104C123.299 212.104 123.715 211.96 124.046 211.672L124.446 212.488C124.222 212.691 123.95 212.84 123.63 212.936C123.32 213.032 123 213.08 122.67 213.08ZM118.702 205.544V204.6H123.902V205.544H118.702ZM126.706 213V203.544C126.706 202.797 126.924 202.195 127.362 201.736C127.799 201.277 128.428 201.048 129.25 201.048C129.57 201.048 129.879 201.091 130.178 201.176C130.476 201.261 130.727 201.395 130.93 201.576L130.546 202.424C130.386 202.285 130.199 202.184 129.986 202.12C129.772 202.045 129.543 202.008 129.298 202.008C128.818 202.008 128.45 202.141 128.194 202.408C127.938 202.675 127.81 203.069 127.81 203.592V204.872L127.842 205.4V213H126.706ZM125.202 205.544V204.6H130.402V205.544H125.202ZM135.219 213.08C134.408 213.08 133.678 212.899 133.027 212.536C132.387 212.163 131.88 211.656 131.507 211.016C131.134 210.365 130.947 209.624 130.947 208.792C130.947 207.949 131.134 207.208 131.507 206.568C131.88 205.928 132.387 205.427 133.027 205.064C133.667 204.701 134.398 204.52 135.219 204.52C136.051 204.52 136.787 204.701 137.427 205.064C138.078 205.427 138.584 205.928 138.947 206.568C139.32 207.208 139.507 207.949 139.507 208.792C139.507 209.624 139.32 210.365 138.947 211.016C138.584 211.656 138.078 212.163 137.427 212.536C136.776 212.899 136.04 213.08 135.219 213.08ZM135.219 212.072C135.827 212.072 136.366 211.939 136.835 211.672C137.304 211.395 137.672 211.011 137.939 210.52C138.216 210.019 138.355 209.443 138.355 208.792C138.355 208.131 138.216 207.555 137.939 207.064C137.672 206.573 137.304 206.195 136.835 205.928C136.366 205.651 135.832 205.512 135.235 205.512C134.638 205.512 134.104 205.651 133.635 205.928C133.166 206.195 132.792 206.573 132.515 207.064C132.238 207.555 132.099 208.131 132.099 208.792C132.099 209.443 132.238 210.019 132.515 210.52C132.792 211.011 133.166 211.395 133.635 211.672C134.104 211.939 134.632 212.072 135.219 212.072ZM141.826 213V204.6H142.914V206.888L142.802 206.488C143.037 205.848 143.432 205.363 143.986 205.032C144.541 204.691 145.229 204.52 146.05 204.52V205.624C146.008 205.624 145.965 205.624 145.922 205.624C145.88 205.613 145.837 205.608 145.794 205.608C144.909 205.608 144.216 205.88 143.714 206.424C143.213 206.957 142.962 207.72 142.962 208.712V213H141.826ZM158.619 204.52C159.302 204.52 159.894 204.653 160.395 204.92C160.907 205.176 161.302 205.571 161.579 206.104C161.867 206.637 162.011 207.309 162.011 208.12V213H160.875V208.232C160.875 207.347 160.662 206.68 160.235 206.232C159.819 205.773 159.227 205.544 158.459 205.544C157.883 205.544 157.382 205.667 156.955 205.912C156.539 206.147 156.214 206.493 155.979 206.952C155.755 207.4 155.643 207.944 155.643 208.584V213H154.507V208.232C154.507 207.347 154.294 206.68 153.867 206.232C153.44 205.773 152.843 205.544 152.075 205.544C151.51 205.544 151.014 205.667 150.587 205.912C150.16 206.147 149.83 206.493 149.595 206.952C149.371 207.4 149.259 207.944 149.259 208.584V213H148.123V204.6H149.211V206.872L149.035 206.472C149.291 205.864 149.702 205.389 150.267 205.048C150.843 204.696 151.52 204.52 152.299 204.52C153.12 204.52 153.819 204.728 154.395 205.144C154.971 205.549 155.344 206.163 155.515 206.984L155.067 206.808C155.312 206.125 155.744 205.576 156.363 205.16C156.992 204.733 157.744 204.52 158.619 204.52ZM171.935 213.08C171.146 213.08 170.538 212.867 170.111 212.44C169.685 212.013 169.471 211.411 169.471 210.632V202.744H170.607V210.568C170.607 211.059 170.73 211.437 170.975 211.704C171.231 211.971 171.594 212.104 172.063 212.104C172.565 212.104 172.981 211.96 173.311 211.672L173.711 212.488C173.487 212.691 173.215 212.84 172.895 212.936C172.586 213.032 172.266 213.08 171.935 213.08ZM167.967 205.544V204.6H173.167V205.544H167.967ZM180.067 204.52C180.75 204.52 181.347 204.653 181.859 204.92C182.382 205.176 182.787 205.571 183.075 206.104C183.374 206.637 183.523 207.309 183.523 208.12V213H182.387V208.232C182.387 207.347 182.163 206.68 181.715 206.232C181.278 205.773 180.659 205.544 179.859 205.544C179.262 205.544 178.739 205.667 178.291 205.912C177.854 206.147 177.513 206.493 177.267 206.952C177.033 207.4 176.915 207.944 176.915 208.584V213H175.779V201.128H176.915V206.904L176.691 206.472C176.958 205.864 177.385 205.389 177.971 205.048C178.558 204.696 179.257 204.52 180.067 204.52ZM191.856 213V211.144L191.808 210.84V207.736C191.808 207.021 191.605 206.472 191.2 206.088C190.805 205.704 190.213 205.512 189.424 205.512C188.88 205.512 188.362 205.603 187.872 205.784C187.381 205.965 186.965 206.205 186.624 206.504L186.112 205.656C186.538 205.293 187.05 205.016 187.648 204.824C188.245 204.621 188.874 204.52 189.536 204.52C190.624 204.52 191.461 204.792 192.048 205.336C192.645 205.869 192.944 206.685 192.944 207.784V213H191.856ZM188.96 213.08C188.33 213.08 187.781 212.979 187.312 212.776C186.853 212.563 186.501 212.275 186.256 211.912C186.01 211.539 185.888 211.112 185.888 210.632C185.888 210.195 185.989 209.8 186.192 209.448C186.405 209.085 186.746 208.797 187.216 208.584C187.696 208.36 188.336 208.248 189.136 208.248H192.032V209.096H189.168C188.357 209.096 187.792 209.24 187.472 209.528C187.162 209.816 187.008 210.173 187.008 210.6C187.008 211.08 187.194 211.464 187.568 211.752C187.941 212.04 188.464 212.184 189.136 212.184C189.776 212.184 190.325 212.04 190.784 211.752C191.253 211.453 191.594 211.027 191.808 210.472L192.064 211.256C191.85 211.811 191.477 212.253 190.944 212.584C190.421 212.915 189.76 213.08 188.96 213.08ZM198.685 213.08C197.896 213.08 197.288 212.867 196.861 212.44C196.435 212.013 196.221 211.411 196.221 210.632V202.744H197.357V210.568C197.357 211.059 197.48 211.437 197.725 211.704C197.981 211.971 198.344 212.104 198.813 212.104C199.315 212.104 199.731 211.96 200.061 211.672L200.461 212.488C200.237 212.691 199.965 212.84 199.645 212.936C199.336 213.032 199.016 213.08 198.685 213.08ZM194.717 205.544V204.6H199.917V205.544H194.717ZM210.285 213.08C209.41 213.08 208.642 212.899 207.981 212.536C207.319 212.163 206.802 211.656 206.429 211.016C206.055 210.365 205.869 209.624 205.869 208.792C205.869 207.96 206.045 207.224 206.397 206.584C206.759 205.944 207.25 205.443 207.869 205.08C208.498 204.707 209.202 204.52 209.981 204.52C210.77 204.52 211.469 204.701 212.077 205.064C212.695 205.416 213.181 205.917 213.533 206.568C213.885 207.208 214.061 207.949 214.061 208.792C214.061 208.845 214.055 208.904 214.045 208.968C214.045 209.021 214.045 209.08 214.045 209.144H206.733V208.296H213.437L212.989 208.632C212.989 208.024 212.855 207.485 212.589 207.016C212.333 206.536 211.981 206.163 211.533 205.896C211.085 205.629 210.567 205.496 209.981 205.496C209.405 205.496 208.887 205.629 208.429 205.896C207.97 206.163 207.613 206.536 207.357 207.016C207.101 207.496 206.973 208.045 206.973 208.664V208.84C206.973 209.48 207.111 210.045 207.389 210.536C207.677 211.016 208.071 211.395 208.573 211.672C209.085 211.939 209.666 212.072 210.317 212.072C210.829 212.072 211.303 211.981 211.741 211.8C212.189 211.619 212.573 211.341 212.893 210.968L213.533 211.704C213.159 212.152 212.69 212.493 212.125 212.728C211.57 212.963 210.957 213.08 210.285 213.08ZM216.565 213V203.544C216.565 202.797 216.784 202.195 217.221 201.736C217.658 201.277 218.288 201.048 219.109 201.048C219.429 201.048 219.738 201.091 220.037 201.176C220.336 201.261 220.586 201.395 220.789 201.576L220.405 202.424C220.245 202.285 220.058 202.184 219.845 202.12C219.632 202.045 219.402 202.008 219.157 202.008C218.677 202.008 218.309 202.141 218.053 202.408C217.797 202.675 217.669 203.069 217.669 203.592V204.872L217.701 205.4V213H216.565ZM215.061 205.544V204.6H220.261V205.544H215.061ZM222.018 213V203.544C222.018 202.797 222.237 202.195 222.674 201.736C223.112 201.277 223.741 201.048 224.562 201.048C224.882 201.048 225.192 201.091 225.49 201.176C225.789 201.261 226.04 201.395 226.242 201.576L225.858 202.424C225.698 202.285 225.512 202.184 225.298 202.12C225.085 202.045 224.856 202.008 224.61 202.008C224.13 202.008 223.762 202.141 223.506 202.408C223.25 202.675 223.122 203.069 223.122 203.592V204.872L223.154 205.4V213H222.018ZM220.514 205.544V204.6H225.714V205.544H220.514ZM230.675 213.08C229.801 213.08 229.033 212.899 228.371 212.536C227.71 212.163 227.193 211.656 226.819 211.016C226.446 210.365 226.259 209.624 226.259 208.792C226.259 207.96 226.435 207.224 226.787 206.584C227.15 205.944 227.641 205.443 228.259 205.08C228.889 204.707 229.593 204.52 230.371 204.52C231.161 204.52 231.859 204.701 232.467 205.064C233.086 205.416 233.571 205.917 233.923 206.568C234.275 207.208 234.451 207.949 234.451 208.792C234.451 208.845 234.446 208.904 234.435 208.968C234.435 209.021 234.435 209.08 234.435 209.144H227.123V208.296H233.827L233.379 208.632C233.379 208.024 233.246 207.485 232.979 207.016C232.723 206.536 232.371 206.163 231.923 205.896C231.475 205.629 230.958 205.496 230.371 205.496C229.795 205.496 229.278 205.629 228.819 205.896C228.361 206.163 228.003 206.536 227.747 207.016C227.491 207.496 227.363 208.045 227.363 208.664V208.84C227.363 209.48 227.502 210.045 227.779 210.536C228.067 211.016 228.462 211.395 228.963 211.672C229.475 211.939 230.057 212.072 230.707 212.072C231.219 212.072 231.694 211.981 232.131 211.8C232.579 211.619 232.963 211.341 233.283 210.968L233.923 211.704C233.55 212.152 233.081 212.493 232.515 212.728C231.961 212.963 231.347 213.08 230.675 213.08ZM240.252 213.08C239.42 213.08 238.673 212.899 238.012 212.536C237.361 212.163 236.849 211.656 236.476 211.016C236.102 210.365 235.916 209.624 235.916 208.792C235.916 207.949 236.102 207.208 236.476 206.568C236.849 205.928 237.361 205.427 238.012 205.064C238.673 204.701 239.42 204.52 240.252 204.52C240.966 204.52 241.612 204.659 242.188 204.936C242.764 205.213 243.217 205.629 243.548 206.184L242.7 206.76C242.412 206.333 242.054 206.019 241.628 205.816C241.201 205.613 240.737 205.512 240.236 205.512C239.638 205.512 239.1 205.651 238.62 205.928C238.14 206.195 237.761 206.573 237.484 207.064C237.206 207.555 237.068 208.131 237.068 208.792C237.068 209.453 237.206 210.029 237.484 210.52C237.761 211.011 238.14 211.395 238.62 211.672C239.1 211.939 239.638 212.072 240.236 212.072C240.737 212.072 241.201 211.971 241.628 211.768C242.054 211.565 242.412 211.256 242.7 210.84L243.548 211.416C243.217 211.96 242.764 212.376 242.188 212.664C241.612 212.941 240.966 213.08 240.252 213.08ZM248.529 213.08C247.74 213.08 247.132 212.867 246.705 212.44C246.278 212.013 246.065 211.411 246.065 210.632V202.744H247.201V210.568C247.201 211.059 247.324 211.437 247.569 211.704C247.825 211.971 248.188 212.104 248.657 212.104C249.158 212.104 249.574 211.96 249.905 211.672L250.305 212.488C250.081 212.691 249.809 212.84 249.489 212.936C249.18 213.032 248.86 213.08 248.529 213.08ZM244.561 205.544V204.6H249.761V205.544H244.561ZM252.373 213V204.6H253.509V213H252.373ZM252.949 202.744C252.714 202.744 252.517 202.664 252.357 202.504C252.197 202.344 252.117 202.152 252.117 201.928C252.117 201.704 252.197 201.517 252.357 201.368C252.517 201.208 252.714 201.128 252.949 201.128C253.184 201.128 253.381 201.203 253.541 201.352C253.701 201.501 253.781 201.688 253.781 201.912C253.781 202.147 253.701 202.344 253.541 202.504C253.392 202.664 253.194 202.744 252.949 202.744ZM258.83 213L255.102 204.6H256.286L259.71 212.392H259.15L262.622 204.6H263.742L259.998 213H258.83ZM268.675 213.08C267.801 213.08 267.033 212.899 266.371 212.536C265.71 212.163 265.193 211.656 264.819 211.016C264.446 210.365 264.259 209.624 264.259 208.792C264.259 207.96 264.435 207.224 264.787 206.584C265.15 205.944 265.641 205.443 266.259 205.08C266.889 204.707 267.593 204.52 268.371 204.52C269.161 204.52 269.859 204.701 270.467 205.064C271.086 205.416 271.571 205.917 271.923 206.568C272.275 207.208 272.451 207.949 272.451 208.792C272.451 208.845 272.446 208.904 272.435 208.968C272.435 209.021 272.435 209.08 272.435 209.144H265.123V208.296H271.827L271.379 208.632C271.379 208.024 271.246 207.485 270.979 207.016C270.723 206.536 270.371 206.163 269.923 205.896C269.475 205.629 268.958 205.496 268.371 205.496C267.795 205.496 267.278 205.629 266.819 205.896C266.361 206.163 266.003 206.536 265.747 207.016C265.491 207.496 265.363 208.045 265.363 208.664V208.84C265.363 209.48 265.502 210.045 265.779 210.536C266.067 211.016 266.462 211.395 266.963 211.672C267.475 211.939 268.057 212.072 268.707 212.072C269.219 212.072 269.694 211.981 270.131 211.8C270.579 211.619 270.963 211.341 271.283 210.968L271.923 211.704C271.55 212.152 271.081 212.493 270.515 212.728C269.961 212.963 269.347 213.08 268.675 213.08ZM274.764 213V201.128H275.9V213H274.764ZM279.125 216.184C278.73 216.184 278.351 216.12 277.989 215.992C277.637 215.864 277.333 215.672 277.077 215.416L277.605 214.568C277.818 214.771 278.047 214.925 278.293 215.032C278.549 215.149 278.831 215.208 279.141 215.208C279.514 215.208 279.834 215.101 280.101 214.888C280.378 214.685 280.639 214.323 280.885 213.8L281.429 212.568L281.557 212.392L285.013 204.6H286.133L281.925 214.008C281.69 214.552 281.429 214.984 281.141 215.304C280.863 215.624 280.559 215.848 280.229 215.976C279.898 216.115 279.53 216.184 279.125 216.184ZM281.365 213.24L277.493 204.6H278.677L282.101 212.312L281.365 213.24ZM103.209 234V225.6H104.297V227.888L104.185 227.488C104.42 226.848 104.814 226.363 105.369 226.032C105.924 225.691 106.612 225.52 107.433 225.52V226.624C107.39 226.624 107.348 226.624 107.305 226.624C107.262 226.613 107.22 226.608 107.177 226.608C106.292 226.608 105.598 226.88 105.097 227.424C104.596 227.957 104.345 228.72 104.345 229.712V234H103.209ZM112.996 234.08C112.121 234.08 111.353 233.899 110.692 233.536C110.03 233.163 109.513 232.656 109.14 232.016C108.766 231.365 108.58 230.624 108.58 229.792C108.58 228.96 108.756 228.224 109.108 227.584C109.47 226.944 109.961 226.443 110.58 226.08C111.209 225.707 111.913 225.52 112.692 225.52C113.481 225.52 114.18 225.701 114.788 226.064C115.406 226.416 115.892 226.917 116.244 227.568C116.596 228.208 116.772 228.949 116.772 229.792C116.772 229.845 116.766 229.904 116.756 229.968C116.756 230.021 116.756 230.08 116.756 230.144H109.444V229.296H116.148L115.7 229.632C115.7 229.024 115.566 228.485 115.3 228.016C115.044 227.536 114.692 227.163 114.244 226.896C113.796 226.629 113.278 226.496 112.692 226.496C112.116 226.496 111.598 226.629 111.14 226.896C110.681 227.163 110.324 227.536 110.068 228.016C109.812 228.496 109.684 229.045 109.684 229.664V229.84C109.684 230.48 109.822 231.045 110.1 231.536C110.388 232.016 110.782 232.395 111.284 232.672C111.796 232.939 112.377 233.072 113.028 233.072C113.54 233.072 114.014 232.981 114.452 232.8C114.9 232.619 115.284 232.341 115.604 231.968L116.244 232.704C115.87 233.152 115.401 233.493 114.836 233.728C114.281 233.963 113.668 234.08 112.996 234.08ZM121.74 234.08C120.951 234.08 120.343 233.867 119.916 233.44C119.489 233.013 119.276 232.411 119.276 231.632V223.744H120.412V231.568C120.412 232.059 120.535 232.437 120.78 232.704C121.036 232.971 121.399 233.104 121.868 233.104C122.369 233.104 122.785 232.96 123.116 232.672L123.516 233.488C123.292 233.691 123.02 233.84 122.7 233.936C122.391 234.032 122.071 234.08 121.74 234.08ZM117.772 226.544V225.6H122.972V226.544H117.772ZM130.848 234V232.144L130.8 231.84V228.736C130.8 228.021 130.597 227.472 130.192 227.088C129.797 226.704 129.205 226.512 128.416 226.512C127.872 226.512 127.355 226.603 126.864 226.784C126.373 226.965 125.957 227.205 125.616 227.504L125.104 226.656C125.531 226.293 126.043 226.016 126.64 225.824C127.237 225.621 127.867 225.52 128.528 225.52C129.616 225.52 130.453 225.792 131.04 226.336C131.637 226.869 131.936 227.685 131.936 228.784V234H130.848ZM127.952 234.08C127.323 234.08 126.773 233.979 126.304 233.776C125.845 233.563 125.493 233.275 125.248 232.912C125.003 232.539 124.88 232.112 124.88 231.632C124.88 231.195 124.981 230.8 125.184 230.448C125.397 230.085 125.739 229.797 126.208 229.584C126.688 229.36 127.328 229.248 128.128 229.248H131.024V230.096H128.16C127.349 230.096 126.784 230.24 126.464 230.528C126.155 230.816 126 231.173 126 231.6C126 232.08 126.187 232.464 126.56 232.752C126.933 233.04 127.456 233.184 128.128 233.184C128.768 233.184 129.317 233.04 129.776 232.752C130.245 232.453 130.587 232.027 130.8 231.472L131.056 232.256C130.843 232.811 130.469 233.253 129.936 233.584C129.413 233.915 128.752 234.08 127.952 234.08ZM135.022 234V225.6H136.158V234H135.022ZM135.598 223.744C135.363 223.744 135.166 223.664 135.006 223.504C134.846 223.344 134.766 223.152 134.766 222.928C134.766 222.704 134.846 222.517 135.006 222.368C135.166 222.208 135.363 222.128 135.598 222.128C135.832 222.128 136.03 222.203 136.19 222.352C136.35 222.501 136.43 222.688 136.43 222.912C136.43 223.147 136.35 223.344 136.19 223.504C136.04 223.664 135.843 223.744 135.598 223.744ZM143.606 225.52C144.289 225.52 144.886 225.653 145.398 225.92C145.921 226.176 146.326 226.571 146.614 227.104C146.913 227.637 147.062 228.309 147.062 229.12V234H145.926V229.232C145.926 228.347 145.702 227.68 145.254 227.232C144.817 226.773 144.198 226.544 143.398 226.544C142.801 226.544 142.278 226.667 141.83 226.912C141.393 227.147 141.052 227.493 140.806 227.952C140.572 228.4 140.454 228.944 140.454 229.584V234H139.318V225.6H140.406V227.904L140.23 227.472C140.497 226.864 140.924 226.389 141.51 226.048C142.097 225.696 142.796 225.52 143.606 225.52ZM152.387 234.08C151.694 234.08 151.038 233.984 150.419 233.792C149.8 233.589 149.315 233.339 148.963 233.04L149.475 232.144C149.816 232.4 150.254 232.624 150.787 232.816C151.32 232.997 151.88 233.088 152.467 233.088C153.267 233.088 153.843 232.965 154.195 232.72C154.547 232.464 154.723 232.128 154.723 231.712C154.723 231.403 154.622 231.163 154.419 230.992C154.227 230.811 153.971 230.677 153.651 230.592C153.331 230.496 152.974 230.416 152.579 230.352C152.184 230.288 151.79 230.213 151.395 230.128C151.011 230.043 150.659 229.92 150.339 229.76C150.019 229.589 149.758 229.36 149.555 229.072C149.363 228.784 149.267 228.4 149.267 227.92C149.267 227.461 149.395 227.051 149.651 226.688C149.907 226.325 150.28 226.043 150.771 225.84C151.272 225.627 151.88 225.52 152.595 225.52C153.139 225.52 153.683 225.595 154.227 225.744C154.771 225.883 155.219 226.069 155.571 226.304L155.075 227.216C154.702 226.96 154.302 226.779 153.875 226.672C153.448 226.555 153.022 226.496 152.595 226.496C151.838 226.496 151.278 226.629 150.915 226.896C150.563 227.152 150.387 227.483 150.387 227.888C150.387 228.208 150.483 228.459 150.675 228.64C150.878 228.821 151.139 228.965 151.459 229.072C151.79 229.168 152.147 229.248 152.531 229.312C152.926 229.376 153.315 229.456 153.699 229.552C154.094 229.637 154.451 229.76 154.771 229.92C155.102 230.069 155.363 230.288 155.555 230.576C155.758 230.853 155.859 231.221 155.859 231.68C155.859 232.171 155.72 232.597 155.443 232.96C155.176 233.312 154.782 233.589 154.259 233.792C153.747 233.984 153.123 234.08 152.387 234.08ZM164.787 234.08C163.998 234.08 163.39 233.867 162.963 233.44C162.536 233.013 162.323 232.411 162.323 231.632V223.744H163.459V231.568C163.459 232.059 163.582 232.437 163.827 232.704C164.083 232.971 164.446 233.104 164.915 233.104C165.416 233.104 165.832 232.96 166.163 232.672L166.563 233.488C166.339 233.691 166.067 233.84 165.747 233.936C165.438 234.032 165.118 234.08 164.787 234.08ZM160.819 226.544V225.6H166.019V226.544H160.819ZM172.919 225.52C173.602 225.52 174.199 225.653 174.711 225.92C175.234 226.176 175.639 226.571 175.927 227.104C176.226 227.637 176.375 228.309 176.375 229.12V234H175.239V229.232C175.239 228.347 175.015 227.68 174.567 227.232C174.13 226.773 173.511 226.544 172.711 226.544C172.114 226.544 171.591 226.667 171.143 226.912C170.706 227.147 170.364 227.493 170.119 227.952C169.884 228.4 169.767 228.944 169.767 229.584V234H168.631V222.128H169.767V227.904L169.543 227.472C169.81 226.864 170.236 226.389 170.823 226.048C171.41 225.696 172.108 225.52 172.919 225.52ZM183.011 234.08C182.137 234.08 181.369 233.899 180.707 233.536C180.046 233.163 179.529 232.656 179.155 232.016C178.782 231.365 178.595 230.624 178.595 229.792C178.595 228.96 178.771 228.224 179.123 227.584C179.486 226.944 179.977 226.443 180.595 226.08C181.225 225.707 181.929 225.52 182.707 225.52C183.497 225.52 184.195 225.701 184.803 226.064C185.422 226.416 185.907 226.917 186.259 227.568C186.611 228.208 186.787 228.949 186.787 229.792C186.787 229.845 186.782 229.904 186.771 229.968C186.771 230.021 186.771 230.08 186.771 230.144H179.459V229.296H186.163L185.715 229.632C185.715 229.024 185.582 228.485 185.315 228.016C185.059 227.536 184.707 227.163 184.259 226.896C183.811 226.629 183.294 226.496 182.707 226.496C182.131 226.496 181.614 226.629 181.155 226.896C180.697 227.163 180.339 227.536 180.083 228.016C179.827 228.496 179.699 229.045 179.699 229.664V229.84C179.699 230.48 179.838 231.045 180.115 231.536C180.403 232.016 180.798 232.395 181.299 232.672C181.811 232.939 182.393 233.072 183.043 233.072C183.555 233.072 184.03 232.981 184.467 232.8C184.915 232.619 185.299 232.341 185.619 231.968L186.259 232.704C185.886 233.152 185.417 233.493 184.851 233.728C184.297 233.963 183.683 234.08 183.011 234.08ZM196.775 234.08C195.943 234.08 195.196 233.899 194.535 233.536C193.884 233.163 193.372 232.656 192.999 232.016C192.626 231.365 192.439 230.624 192.439 229.792C192.439 228.949 192.626 228.208 192.999 227.568C193.372 226.928 193.884 226.427 194.535 226.064C195.196 225.701 195.943 225.52 196.775 225.52C197.49 225.52 198.135 225.659 198.711 225.936C199.287 226.213 199.74 226.629 200.071 227.184L199.223 227.76C198.935 227.333 198.578 227.019 198.151 226.816C197.724 226.613 197.26 226.512 196.759 226.512C196.162 226.512 195.623 226.651 195.143 226.928C194.663 227.195 194.284 227.573 194.007 228.064C193.73 228.555 193.591 229.131 193.591 229.792C193.591 230.453 193.73 231.029 194.007 231.52C194.284 232.011 194.663 232.395 195.143 232.672C195.623 232.939 196.162 233.072 196.759 233.072C197.26 233.072 197.724 232.971 198.151 232.768C198.578 232.565 198.935 232.256 199.223 231.84L200.071 232.416C199.74 232.96 199.287 233.376 198.711 233.664C198.135 233.941 197.49 234.08 196.775 234.08ZM205.586 234.08C204.775 234.08 204.045 233.899 203.394 233.536C202.754 233.163 202.247 232.656 201.874 232.016C201.501 231.365 201.314 230.624 201.314 229.792C201.314 228.949 201.501 228.208 201.874 227.568C202.247 226.928 202.754 226.427 203.394 226.064C204.034 225.701 204.765 225.52 205.586 225.52C206.418 225.52 207.154 225.701 207.794 226.064C208.445 226.427 208.951 226.928 209.314 227.568C209.687 228.208 209.874 228.949 209.874 229.792C209.874 230.624 209.687 231.365 209.314 232.016C208.951 232.656 208.445 233.163 207.794 233.536C207.143 233.899 206.407 234.08 205.586 234.08ZM205.586 233.072C206.194 233.072 206.733 232.939 207.202 232.672C207.671 232.395 208.039 232.011 208.306 231.52C208.583 231.019 208.722 230.443 208.722 229.792C208.722 229.131 208.583 228.555 208.306 228.064C208.039 227.573 207.671 227.195 207.202 226.928C206.733 226.651 206.199 226.512 205.602 226.512C205.005 226.512 204.471 226.651 204.002 226.928C203.533 227.195 203.159 227.573 202.882 228.064C202.605 228.555 202.466 229.131 202.466 229.792C202.466 230.443 202.605 231.019 202.882 231.52C203.159 232.011 203.533 232.395 204.002 232.672C204.471 232.939 204.999 233.072 205.586 233.072ZM222.689 225.52C223.372 225.52 223.964 225.653 224.465 225.92C224.977 226.176 225.372 226.571 225.649 227.104C225.937 227.637 226.081 228.309 226.081 229.12V234H224.945V229.232C224.945 228.347 224.732 227.68 224.305 227.232C223.889 226.773 223.297 226.544 222.529 226.544C221.953 226.544 221.452 226.667 221.025 226.912C220.609 227.147 220.284 227.493 220.049 227.952C219.825 228.4 219.713 228.944 219.713 229.584V234H218.577V229.232C218.577 228.347 218.364 227.68 217.937 227.232C217.511 226.773 216.913 226.544 216.145 226.544C215.58 226.544 215.084 226.667 214.657 226.912C214.231 227.147 213.9 227.493 213.665 227.952C213.441 228.4 213.329 228.944 213.329 229.584V234H212.193V225.6H213.281V227.872L213.105 227.472C213.361 226.864 213.772 226.389 214.337 226.048C214.913 225.696 215.591 225.52 216.369 225.52C217.191 225.52 217.889 225.728 218.465 226.144C219.041 226.549 219.415 227.163 219.585 227.984L219.137 227.808C219.383 227.125 219.815 226.576 220.433 226.16C221.063 225.733 221.815 225.52 222.689 225.52ZM233.498 234.08C232.773 234.08 232.117 233.915 231.53 233.584C230.943 233.243 230.474 232.757 230.122 232.128C229.781 231.488 229.61 230.709 229.61 229.792C229.61 228.875 229.781 228.101 230.122 227.472C230.463 226.832 230.927 226.347 231.514 226.016C232.101 225.685 232.762 225.52 233.498 225.52C234.298 225.52 235.013 225.701 235.642 226.064C236.282 226.416 236.783 226.917 237.146 227.568C237.509 228.208 237.69 228.949 237.69 229.792C237.69 230.645 237.509 231.392 237.146 232.032C236.783 232.672 236.282 233.173 235.642 233.536C235.013 233.899 234.298 234.08 233.498 234.08ZM229.162 237.104V225.6H230.25V228.128L230.138 229.808L230.298 231.504V237.104H229.162ZM233.418 233.072C234.015 233.072 234.549 232.939 235.018 232.672C235.487 232.395 235.861 232.011 236.138 231.52C236.415 231.019 236.554 230.443 236.554 229.792C236.554 229.141 236.415 228.571 236.138 228.08C235.861 227.589 235.487 227.205 235.018 226.928C234.549 226.651 234.015 226.512 233.418 226.512C232.821 226.512 232.282 226.651 231.802 226.928C231.333 227.205 230.959 227.589 230.682 228.08C230.415 228.571 230.282 229.141 230.282 229.792C230.282 230.443 230.415 231.019 230.682 231.52C230.959 232.011 231.333 232.395 231.802 232.672C232.282 232.939 232.821 233.072 233.418 233.072ZM245.223 234V232.144L245.175 231.84V228.736C245.175 228.021 244.972 227.472 244.567 227.088C244.172 226.704 243.58 226.512 242.791 226.512C242.247 226.512 241.73 226.603 241.239 226.784C240.748 226.965 240.332 227.205 239.991 227.504L239.479 226.656C239.906 226.293 240.418 226.016 241.015 225.824C241.612 225.621 242.242 225.52 242.903 225.52C243.991 225.52 244.828 225.792 245.415 226.336C246.012 226.869 246.311 227.685 246.311 228.784V234H245.223ZM242.327 234.08C241.698 234.08 241.148 233.979 240.679 233.776C240.22 233.563 239.868 233.275 239.623 232.912C239.378 232.539 239.255 232.112 239.255 231.632C239.255 231.195 239.356 230.8 239.559 230.448C239.772 230.085 240.114 229.797 240.583 229.584C241.063 229.36 241.703 229.248 242.503 229.248H245.399V230.096H242.535C241.724 230.096 241.159 230.24 240.839 230.528C240.53 230.816 240.375 231.173 240.375 231.6C240.375 232.08 240.562 232.464 240.935 232.752C241.308 233.04 241.831 233.184 242.503 233.184C243.143 233.184 243.692 233.04 244.151 232.752C244.62 232.453 244.962 232.027 245.175 231.472L245.431 232.256C245.218 232.811 244.844 233.253 244.311 233.584C243.788 233.915 243.127 234.08 242.327 234.08ZM253.685 225.52C254.367 225.52 254.965 225.653 255.477 225.92C255.999 226.176 256.405 226.571 256.693 227.104C256.991 227.637 257.141 228.309 257.141 229.12V234H256.005V229.232C256.005 228.347 255.781 227.68 255.333 227.232C254.895 226.773 254.277 226.544 253.477 226.544C252.879 226.544 252.357 226.667 251.909 226.912C251.471 227.147 251.13 227.493 250.885 227.952C250.65 228.4 250.533 228.944 250.533 229.584V234H249.397V225.6H250.485V227.904L250.309 227.472C250.575 226.864 251.002 226.389 251.589 226.048C252.175 225.696 252.874 225.52 253.685 225.52ZM260.117 237.184C259.722 237.184 259.343 237.12 258.981 236.992C258.629 236.864 258.325 236.672 258.069 236.416L258.597 235.568C258.81 235.771 259.039 235.925 259.285 236.032C259.541 236.149 259.823 236.208 260.133 236.208C260.506 236.208 260.826 236.101 261.093 235.888C261.37 235.685 261.631 235.323 261.877 234.8L262.421 233.568L262.549 233.392L266.005 225.6H267.125L262.917 235.008C262.682 235.552 262.421 235.984 262.133 236.304C261.855 236.624 261.551 236.848 261.221 236.976C260.89 237.115 260.522 237.184 260.117 237.184ZM262.357 234.24L258.485 225.6H259.669L263.093 233.312L262.357 234.24ZM268.318 226.032L269.022 223.088L269.15 223.76C268.905 223.76 268.697 223.685 268.526 223.536C268.366 223.376 268.286 223.168 268.286 222.912C268.286 222.656 268.366 222.448 268.526 222.288C268.697 222.128 268.899 222.048 269.134 222.048C269.379 222.048 269.577 222.133 269.726 222.304C269.886 222.464 269.966 222.667 269.966 222.912C269.966 222.997 269.961 223.083 269.95 223.168C269.939 223.253 269.918 223.349 269.886 223.456C269.865 223.552 269.827 223.675 269.774 223.824L269.086 226.032H268.318ZM274.403 234.08C273.709 234.08 273.053 233.984 272.435 233.792C271.816 233.589 271.331 233.339 270.979 233.04L271.491 232.144C271.832 232.4 272.269 232.624 272.803 232.816C273.336 232.997 273.896 233.088 274.483 233.088C275.283 233.088 275.859 232.965 276.211 232.72C276.563 232.464 276.739 232.128 276.739 231.712C276.739 231.403 276.637 231.163 276.435 230.992C276.243 230.811 275.987 230.677 275.667 230.592C275.347 230.496 274.989 230.416 274.595 230.352C274.2 230.288 273.805 230.213 273.411 230.128C273.027 230.043 272.675 229.92 272.355 229.76C272.035 229.589 271.773 229.36 271.571 229.072C271.379 228.784 271.283 228.4 271.283 227.92C271.283 227.461 271.411 227.051 271.667 226.688C271.923 226.325 272.296 226.043 272.787 225.84C273.288 225.627 273.896 225.52 274.611 225.52C275.155 225.52 275.699 225.595 276.243 225.744C276.787 225.883 277.235 226.069 277.587 226.304L277.091 227.216C276.717 226.96 276.317 226.779 275.891 226.672C275.464 226.555 275.037 226.496 274.611 226.496C273.853 226.496 273.293 226.629 272.931 226.896C272.579 227.152 272.403 227.483 272.403 227.888C272.403 228.208 272.499 228.459 272.691 228.64C272.893 228.821 273.155 228.965 273.475 229.072C273.805 229.168 274.163 229.248 274.547 229.312C274.941 229.376 275.331 229.456 275.715 229.552C276.109 229.637 276.467 229.76 276.787 229.92C277.117 230.069 277.379 230.288 277.571 230.576C277.773 230.853 277.875 231.221 277.875 231.68C277.875 232.171 277.736 232.597 277.459 232.96C277.192 233.312 276.797 233.589 276.275 233.792C275.763 233.984 275.139 234.08 274.403 234.08ZM108.556 255.08C107.724 255.08 106.978 254.899 106.316 254.536C105.666 254.163 105.154 253.656 104.78 253.016C104.407 252.365 104.22 251.624 104.22 250.792C104.22 249.949 104.407 249.208 104.78 248.568C105.154 247.928 105.666 247.427 106.316 247.064C106.978 246.701 107.724 246.52 108.556 246.52C109.271 246.52 109.916 246.659 110.492 246.936C111.068 247.213 111.522 247.629 111.852 248.184L111.004 248.76C110.716 248.333 110.359 248.019 109.932 247.816C109.506 247.613 109.042 247.512 108.54 247.512C107.943 247.512 107.404 247.651 106.924 247.928C106.444 248.195 106.066 248.573 105.788 249.064C105.511 249.555 105.372 250.131 105.372 250.792C105.372 251.453 105.511 252.029 105.788 252.52C106.066 253.011 106.444 253.395 106.924 253.672C107.404 253.939 107.943 254.072 108.54 254.072C109.042 254.072 109.506 253.971 109.932 253.768C110.359 253.565 110.716 253.256 111.004 252.84L111.852 253.416C111.522 253.96 111.068 254.376 110.492 254.664C109.916 254.941 109.271 255.08 108.556 255.08ZM118.247 246.52C118.93 246.52 119.527 246.653 120.039 246.92C120.562 247.176 120.967 247.571 121.255 248.104C121.554 248.637 121.703 249.309 121.703 250.12V255H120.567V250.232C120.567 249.347 120.343 248.68 119.895 248.232C119.458 247.773 118.839 247.544 118.039 247.544C117.442 247.544 116.919 247.667 116.471 247.912C116.034 248.147 115.692 248.493 115.447 248.952C115.212 249.4 115.095 249.944 115.095 250.584V255H113.959V243.128H115.095V248.904L114.871 248.472C115.138 247.864 115.564 247.389 116.151 247.048C116.738 246.696 117.436 246.52 118.247 246.52ZM130.036 255V253.144L129.988 252.84V249.736C129.988 249.021 129.785 248.472 129.38 248.088C128.985 247.704 128.393 247.512 127.604 247.512C127.06 247.512 126.542 247.603 126.052 247.784C125.561 247.965 125.145 248.205 124.804 248.504L124.292 247.656C124.718 247.293 125.23 247.016 125.828 246.824C126.425 246.621 127.054 246.52 127.716 246.52C128.804 246.52 129.641 246.792 130.228 247.336C130.825 247.869 131.124 248.685 131.124 249.784V255H130.036ZM127.14 255.08C126.51 255.08 125.961 254.979 125.492 254.776C125.033 254.563 124.681 254.275 124.436 253.912C124.19 253.539 124.068 253.112 124.068 252.632C124.068 252.195 124.169 251.8 124.372 251.448C124.585 251.085 124.926 250.797 125.396 250.584C125.876 250.36 126.516 250.248 127.316 250.248H130.212V251.096H127.348C126.537 251.096 125.972 251.24 125.652 251.528C125.342 251.816 125.188 252.173 125.188 252.6C125.188 253.08 125.374 253.464 125.748 253.752C126.121 254.04 126.644 254.184 127.316 254.184C127.956 254.184 128.505 254.04 128.964 253.752C129.433 253.453 129.774 253.027 129.988 252.472L130.244 253.256C130.03 253.811 129.657 254.253 129.124 254.584C128.601 254.915 127.94 255.08 127.14 255.08ZM138.497 246.52C139.18 246.52 139.777 246.653 140.289 246.92C140.812 247.176 141.217 247.571 141.505 248.104C141.804 248.637 141.953 249.309 141.953 250.12V255H140.817V250.232C140.817 249.347 140.593 248.68 140.145 248.232C139.708 247.773 139.089 247.544 138.289 247.544C137.692 247.544 137.169 247.667 136.721 247.912C136.284 248.147 135.942 248.493 135.697 248.952C135.462 249.4 135.345 249.944 135.345 250.584V255H134.209V246.6H135.297V248.904L135.121 248.472C135.388 247.864 135.814 247.389 136.401 247.048C136.988 246.696 137.686 246.52 138.497 246.52ZM149.31 246.52C149.992 246.52 150.59 246.653 151.102 246.92C151.624 247.176 152.03 247.571 152.318 248.104C152.616 248.637 152.766 249.309 152.766 250.12V255H151.63V250.232C151.63 249.347 151.406 248.68 150.958 248.232C150.52 247.773 149.902 247.544 149.102 247.544C148.504 247.544 147.982 247.667 147.534 247.912C147.096 248.147 146.755 248.493 146.51 248.952C146.275 249.4 146.158 249.944 146.158 250.584V255H145.022V246.6H146.11V248.904L145.934 248.472C146.2 247.864 146.627 247.389 147.214 247.048C147.8 246.696 148.499 246.52 149.31 246.52ZM159.402 255.08C158.527 255.08 157.759 254.899 157.098 254.536C156.437 254.163 155.919 253.656 155.546 253.016C155.173 252.365 154.986 251.624 154.986 250.792C154.986 249.96 155.162 249.224 155.514 248.584C155.877 247.944 156.367 247.443 156.986 247.08C157.615 246.707 158.319 246.52 159.098 246.52C159.887 246.52 160.586 246.701 161.194 247.064C161.813 247.416 162.298 247.917 162.65 248.568C163.002 249.208 163.178 249.949 163.178 250.792C163.178 250.845 163.173 250.904 163.162 250.968C163.162 251.021 163.162 251.08 163.162 251.144H155.85V250.296H162.554L162.106 250.632C162.106 250.024 161.973 249.485 161.706 249.016C161.45 248.536 161.098 248.163 160.65 247.896C160.202 247.629 159.685 247.496 159.098 247.496C158.522 247.496 158.005 247.629 157.546 247.896C157.087 248.163 156.73 248.536 156.474 249.016C156.218 249.496 156.09 250.045 156.09 250.664V250.84C156.09 251.48 156.229 252.045 156.506 252.536C156.794 253.016 157.189 253.395 157.69 253.672C158.202 253.939 158.783 254.072 159.434 254.072C159.946 254.072 160.421 253.981 160.858 253.8C161.306 253.619 161.69 253.341 162.01 252.968L162.65 253.704C162.277 254.152 161.807 254.493 161.242 254.728C160.687 254.963 160.074 255.08 159.402 255.08ZM165.49 255V243.128H166.626V255H165.49ZM178.311 255.08C177.585 255.08 176.929 254.915 176.343 254.584C175.756 254.243 175.287 253.757 174.935 253.128C174.593 252.488 174.423 251.709 174.423 250.792C174.423 249.875 174.593 249.101 174.935 248.472C175.276 247.832 175.74 247.347 176.327 247.016C176.913 246.685 177.575 246.52 178.311 246.52C179.111 246.52 179.825 246.701 180.455 247.064C181.095 247.416 181.596 247.917 181.959 248.568C182.321 249.208 182.503 249.949 182.503 250.792C182.503 251.645 182.321 252.392 181.959 253.032C181.596 253.672 181.095 254.173 180.455 254.536C179.825 254.899 179.111 255.08 178.311 255.08ZM173.975 258.104V246.6H175.063V249.128L174.951 250.808L175.111 252.504V258.104H173.975ZM178.231 254.072C178.828 254.072 179.361 253.939 179.831 253.672C180.3 253.395 180.673 253.011 180.951 252.52C181.228 252.019 181.367 251.443 181.367 250.792C181.367 250.141 181.228 249.571 180.951 249.08C180.673 248.589 180.3 248.205 179.831 247.928C179.361 247.651 178.828 247.512 178.231 247.512C177.633 247.512 177.095 247.651 176.615 247.928C176.145 248.205 175.772 248.589 175.495 249.08C175.228 249.571 175.095 250.141 175.095 250.792C175.095 251.443 175.228 252.019 175.495 252.52C175.772 253.011 176.145 253.395 176.615 253.672C177.095 253.939 177.633 254.072 178.231 254.072ZM190.036 255V253.144L189.988 252.84V249.736C189.988 249.021 189.785 248.472 189.38 248.088C188.985 247.704 188.393 247.512 187.604 247.512C187.06 247.512 186.542 247.603 186.052 247.784C185.561 247.965 185.145 248.205 184.804 248.504L184.292 247.656C184.718 247.293 185.23 247.016 185.828 246.824C186.425 246.621 187.054 246.52 187.716 246.52C188.804 246.52 189.641 246.792 190.228 247.336C190.825 247.869 191.124 248.685 191.124 249.784V255H190.036ZM187.14 255.08C186.51 255.08 185.961 254.979 185.492 254.776C185.033 254.563 184.681 254.275 184.436 253.912C184.19 253.539 184.068 253.112 184.068 252.632C184.068 252.195 184.169 251.8 184.372 251.448C184.585 251.085 184.926 250.797 185.396 250.584C185.876 250.36 186.516 250.248 187.316 250.248H190.212V251.096H187.348C186.537 251.096 185.972 251.24 185.652 251.528C185.342 251.816 185.188 252.173 185.188 252.6C185.188 253.08 185.374 253.464 185.748 253.752C186.121 254.04 186.644 254.184 187.316 254.184C187.956 254.184 188.505 254.04 188.964 253.752C189.433 253.453 189.774 253.027 189.988 252.472L190.244 253.256C190.03 253.811 189.657 254.253 189.124 254.584C188.601 254.915 187.94 255.08 187.14 255.08ZM194.209 255V246.6H195.297V248.888L195.185 248.488C195.42 247.848 195.814 247.363 196.369 247.032C196.924 246.691 197.612 246.52 198.433 246.52V247.624C198.39 247.624 198.348 247.624 198.305 247.624C198.262 247.613 198.22 247.608 198.177 247.608C197.292 247.608 196.598 247.88 196.097 248.424C195.596 248.957 195.345 249.72 195.345 250.712V255H194.209ZM203.521 255.08C202.732 255.08 202.124 254.867 201.697 254.44C201.271 254.013 201.057 253.411 201.057 252.632V244.744H202.193V252.568C202.193 253.059 202.316 253.437 202.561 253.704C202.817 253.971 203.18 254.104 203.649 254.104C204.151 254.104 204.567 253.96 204.897 253.672L205.297 254.488C205.073 254.691 204.801 254.84 204.481 254.936C204.172 255.032 203.852 255.08 203.521 255.08ZM199.553 247.544V246.6H204.753V247.544H199.553ZM211.653 246.52C212.336 246.52 212.933 246.653 213.445 246.92C213.968 247.176 214.373 247.571 214.661 248.104C214.96 248.637 215.109 249.309 215.109 250.12V255H213.973V250.232C213.973 249.347 213.749 248.68 213.301 248.232C212.864 247.773 212.245 247.544 211.445 247.544C210.848 247.544 210.325 247.667 209.877 247.912C209.44 248.147 209.099 248.493 208.853 248.952C208.619 249.4 208.501 249.944 208.501 250.584V255H207.365V246.6H208.453V248.904L208.277 248.472C208.544 247.864 208.971 247.389 209.557 247.048C210.144 246.696 210.843 246.52 211.653 246.52ZM221.746 255.08C220.871 255.08 220.103 254.899 219.442 254.536C218.78 254.163 218.263 253.656 217.89 253.016C217.516 252.365 217.33 251.624 217.33 250.792C217.33 249.96 217.506 249.224 217.858 248.584C218.22 247.944 218.711 247.443 219.33 247.08C219.959 246.707 220.663 246.52 221.442 246.52C222.231 246.52 222.93 246.701 223.538 247.064C224.156 247.416 224.642 247.917 224.994 248.568C225.346 249.208 225.522 249.949 225.522 250.792C225.522 250.845 225.516 250.904 225.506 250.968C225.506 251.021 225.506 251.08 225.506 251.144H218.194V250.296H224.898L224.45 250.632C224.45 250.024 224.316 249.485 224.05 249.016C223.794 248.536 223.442 248.163 222.994 247.896C222.546 247.629 222.028 247.496 221.442 247.496C220.866 247.496 220.348 247.629 219.89 247.896C219.431 248.163 219.074 248.536 218.818 249.016C218.562 249.496 218.434 250.045 218.434 250.664V250.84C218.434 251.48 218.572 252.045 218.85 252.536C219.138 253.016 219.532 253.395 220.034 253.672C220.546 253.939 221.127 254.072 221.778 254.072C222.29 254.072 222.764 253.981 223.202 253.8C223.65 253.619 224.034 253.341 224.354 252.968L224.994 253.704C224.62 254.152 224.151 254.493 223.586 254.728C223.031 254.963 222.418 255.08 221.746 255.08ZM227.834 255V246.6H228.922V248.888L228.81 248.488C229.045 247.848 229.439 247.363 229.994 247.032C230.549 246.691 231.237 246.52 232.058 246.52V247.624C232.015 247.624 231.973 247.624 231.93 247.624C231.887 247.613 231.845 247.608 231.802 247.608C230.917 247.608 230.223 247.88 229.722 248.424C229.221 248.957 228.97 249.72 228.97 250.712V255H227.834ZM233.412 257.336L234.116 254.376L234.244 255.064C233.998 255.064 233.79 254.984 233.62 254.824C233.46 254.664 233.38 254.456 233.38 254.2C233.38 253.944 233.46 253.736 233.62 253.576C233.79 253.416 233.993 253.336 234.228 253.336C234.473 253.336 234.67 253.421 234.82 253.592C234.98 253.763 235.06 253.965 235.06 254.2C235.06 254.285 235.054 254.371 235.044 254.456C235.033 254.541 235.012 254.637 234.98 254.744C234.948 254.851 234.905 254.979 234.852 255.128L234.18 257.336H233.412ZM246.942 255V253.144L246.894 252.84V249.736C246.894 249.021 246.691 248.472 246.286 248.088C245.891 247.704 245.299 247.512 244.51 247.512C243.966 247.512 243.448 247.603 242.958 247.784C242.467 247.965 242.051 248.205 241.71 248.504L241.198 247.656C241.624 247.293 242.136 247.016 242.734 246.824C243.331 246.621 243.96 246.52 244.622 246.52C245.71 246.52 246.547 246.792 247.134 247.336C247.731 247.869 248.03 248.685 248.03 249.784V255H246.942ZM244.046 255.08C243.416 255.08 242.867 254.979 242.398 254.776C241.939 254.563 241.587 254.275 241.342 253.912C241.096 253.539 240.974 253.112 240.974 252.632C240.974 252.195 241.075 251.8 241.278 251.448C241.491 251.085 241.832 250.797 242.302 250.584C242.782 250.36 243.422 250.248 244.222 250.248H247.118V251.096H244.254C243.443 251.096 242.878 251.24 242.558 251.528C242.248 251.816 242.094 252.173 242.094 252.6C242.094 253.08 242.28 253.464 242.654 253.752C243.027 254.04 243.55 254.184 244.222 254.184C244.862 254.184 245.411 254.04 245.87 253.752C246.339 253.453 246.68 253.027 246.894 252.472L247.15 253.256C246.936 253.811 246.563 254.253 246.03 254.584C245.507 254.915 244.846 255.08 244.046 255.08ZM254.587 255.08C253.873 255.08 253.249 254.947 252.715 254.68C252.182 254.413 251.766 254.013 251.467 253.48C251.179 252.947 251.035 252.28 251.035 251.48V246.6H252.171V251.352C252.171 252.248 252.39 252.925 252.827 253.384C253.275 253.832 253.899 254.056 254.699 254.056C255.286 254.056 255.793 253.939 256.219 253.704C256.657 253.459 256.987 253.107 257.211 252.648C257.446 252.189 257.563 251.64 257.563 251V246.6H258.699V255H257.611V252.696L257.787 253.112C257.521 253.731 257.105 254.216 256.539 254.568C255.985 254.909 255.334 255.08 254.587 255.08ZM264.521 255.08C263.732 255.08 263.124 254.867 262.697 254.44C262.271 254.013 262.057 253.411 262.057 252.632V244.744H263.193V252.568C263.193 253.059 263.316 253.437 263.561 253.704C263.817 253.971 264.18 254.104 264.649 254.104C265.151 254.104 265.567 253.96 265.897 253.672L266.297 254.488C266.073 254.691 265.801 254.84 265.481 254.936C265.172 255.032 264.852 255.08 264.521 255.08ZM260.553 247.544V246.6H265.753V247.544H260.553ZM271.492 255.08C270.682 255.08 269.951 254.899 269.3 254.536C268.66 254.163 268.154 253.656 267.78 253.016C267.407 252.365 267.22 251.624 267.22 250.792C267.22 249.949 267.407 249.208 267.78 248.568C268.154 247.928 268.66 247.427 269.3 247.064C269.94 246.701 270.671 246.52 271.492 246.52C272.324 246.52 273.06 246.701 273.7 247.064C274.351 247.427 274.858 247.928 275.22 248.568C275.594 249.208 275.78 249.949 275.78 250.792C275.78 251.624 275.594 252.365 275.22 253.016C274.858 253.656 274.351 254.163 273.7 254.536C273.05 254.899 272.314 255.08 271.492 255.08ZM271.492 254.072C272.1 254.072 272.639 253.939 273.108 253.672C273.578 253.395 273.946 253.011 274.212 252.52C274.49 252.019 274.628 251.443 274.628 250.792C274.628 250.131 274.49 249.555 274.212 249.064C273.946 248.573 273.578 248.195 273.108 247.928C272.639 247.651 272.106 247.512 271.508 247.512C270.911 247.512 270.378 247.651 269.908 247.928C269.439 248.195 269.066 248.573 268.788 249.064C268.511 249.555 268.372 250.131 268.372 250.792C268.372 251.443 268.511 252.019 268.788 252.52C269.066 253.011 269.439 253.395 269.908 253.672C270.378 253.939 270.906 254.072 271.492 254.072Z" fill="#333333"/>
</g>
</g>
<defs>
<filter id="filter0_d_4600_319" x="0" y="0" width="380" height="348" filterUnits="userSpaceOnUse" color-interpolation-filters="sRGB">
<feFlood flood-opacity="0" result="BackgroundImageFix"/>
<feColorMatrix in="SourceAlpha" type="matrix" values="0 0 0 0 0 0 0 0 0 0 0 0 0 0 0 0 0 0 127 0" result="hardAlpha"/>
<feOffset dy="16"/>
<feGaussianBlur stdDeviation="20"/>
<feComposite in2="hardAlpha" operator="out"/>
<feColorMatrix type="matrix" values="0 0 0 0 0 0 0 0 0 0 0 0 0 0 0 0 0 0 0.2 0"/>
<feBlend mode="normal" in2="BackgroundImageFix" result="effect1_dropShadow_4600_319"/>
<feBlend mode="normal" in="SourceGraphic" in2="effect1_dropShadow_4600_319" result="shape"/>
</filter>
</defs>
</svg>
